<svg xmlns="http://www.w3.org/2000/svg" viewBox="0 0 750 500"><g id="freepik--background-complete--inject-41"><path d="M100.54,64.7a43.79,43.79,0,0,1,10.65-4.62l2.19-10.54,17.81-.31,2.56,10.45a43.35,43.35,0,0,1,10.8,4.25l9-5.9L166.36,70.4l-5.58,9.2a43.44,43.44,0,0,1,4.63,10.65L176,92.44l.31,17.8-10.45,2.57a43.89,43.89,0,0,1-4.25,10.8l5.89,9-12.36,12.81-9.2-5.58a43.6,43.6,0,0,1-10.65,4.63L133,155l-17.8.31-2.56-10.46a43,43,0,0,1-10.8-4.25l-9,5.9L80.07,134.14,85.64,125A44,44,0,0,1,81,114.3l-10.54-2.2-.31-17.8,10.45-2.56a44,44,0,0,1,4.25-10.81l-5.9-9L91.34,59.12l9.2,5.58ZM110,88.42A19.11,19.11,0,1,0,137,88,19.1,19.1,0,0,0,110,88.42Z" style="fill:#e0e0e0"></path><path d="M206.91,38.91a25.82,25.82,0,0,1,6.23-2.71L214.42,30l10.42-.19,1.5,6.12a25.66,25.66,0,0,1,6.32,2.49L237.92,35l7.5,7.23-3.26,5.38a25.47,25.47,0,0,1,2.7,6.24L251,55.14l.18,10.42-6.11,1.5a25.66,25.66,0,0,1-2.49,6.32l3.45,5.26-7.24,7.5-5.38-3.27a25.43,25.43,0,0,1-6.23,2.71l-1.28,6.17-10.42.18L214,85.81a25.63,25.63,0,0,1-6.32-2.48l-5.26,3.45-7.5-7.24,3.26-5.38a25.4,25.4,0,0,1-2.7-6.23l-6.17-1.29-.18-10.41,6.11-1.5a25.51,25.51,0,0,1,2.49-6.32l-3.45-5.27,7.24-7.49,5.38,3.26Zm5.55,13.88a11.17,11.17,0,1,0,15.81-.28A11.18,11.18,0,0,0,212.46,52.79Z" style="fill:#ebebeb"></path><path d="M95.9,174.07a15.8,15.8,0,0,1,3.85-1.68l.79-3.8,6.44-.12.92,3.78a15.76,15.76,0,0,1,3.91,1.54l3.25-2.13,4.63,4.47-2,3.32a15.6,15.6,0,0,1,1.67,3.85l3.81.79.11,6.43-3.77.93a15.69,15.69,0,0,1-1.54,3.9l2.13,3.25-4.47,4.63-3.32-2a16,16,0,0,1-3.85,1.67l-.79,3.81-6.43.11-.93-3.78a15.66,15.66,0,0,1-3.9-1.53l-3.25,2.13-4.63-4.47,2-3.33A15.92,15.92,0,0,1,88.85,192l-3.81-.8-.11-6.43,3.78-.93a15.81,15.81,0,0,1,1.53-3.9l-2.13-3.25,4.47-4.63,3.32,2Zm3.43,8.57a6.91,6.91,0,1,0,9.76-.17A6.9,6.9,0,0,0,99.33,182.64Z" style="fill:#f5f5f5"></path><path d="M651.87,260.21a20.25,20.25,0,0,1,5-2.16l1-4.91,8.3-.15,1.2,4.88a20.48,20.48,0,0,1,5,2l4.2-2.75,6,5.77-2.6,4.29a20.25,20.25,0,0,1,2.16,5l4.91,1,.15,8.3-4.88,1.2a20.64,20.64,0,0,1-2,5l2.75,4.19-5.77,6-4.29-2.6a20.21,20.21,0,0,1-5,2.15l-1,4.92-8.3.14-1.2-4.87a20.64,20.64,0,0,1-5-2l-4.19,2.75-6-5.77,2.6-4.29a20.21,20.21,0,0,1-2.15-5l-4.92-1-.14-8.3,4.87-1.2a20.48,20.48,0,0,1,2-5l-2.75-4.2,5.77-6,4.29,2.6Zm4.43,11.06a8.91,8.91,0,1,0,12.6-.22A8.91,8.91,0,0,0,656.3,271.27Z" style="fill:#ebebeb"></path><path d="M307.15,454.29a5.42,5.42,0,1,1-1.9-7.44A5.43,5.43,0,0,1,307.15,454.29Z" style="fill:#e0e0e0"></path><path d="M293.6,446.26a5.78,5.78,0,1,1-2-7.92A5.77,5.77,0,0,1,293.6,446.26Z" style="fill:#e0e0e0"></path><path d="M288.47,431.33a6.14,6.14,0,1,1-2.15-8.4A6.12,6.12,0,0,1,288.47,431.33Z" style="fill:#e0e0e0"></path><path d="M294.55,416.67a6.4,6.4,0,1,1-2.24-8.78A6.41,6.41,0,0,1,294.55,416.67Z" style="fill:#e0e0e0"></path><path d="M308.5,408.94a6.62,6.62,0,1,1-2.32-9.07A6.61,6.61,0,0,1,308.5,408.94Z" style="fill:#e0e0e0"></path><path d="M324.75,412.25a7.21,7.21,0,1,1-2.53-9.88A7.21,7.21,0,0,1,324.75,412.25Z" style="fill:#e0e0e0"></path><path d="M322.57,451.39a5.24,5.24,0,1,1-1.84-7.18A5.24,5.24,0,0,1,322.57,451.39Z" style="fill:#e0e0e0"></path><path d="M332.69,439.06A4.86,4.86,0,1,1,331,432.4,4.86,4.86,0,0,1,332.69,439.06Z" style="fill:#e0e0e0"></path><path d="M332.39,422.88a4.45,4.45,0,1,1-1.56-6.08A4.45,4.45,0,0,1,332.39,422.88Z" style="fill:#e0e0e0"></path><path d="M39.41,209.67s-9.29,3.77,1.43,23.51,18,29.45,18,29.45,1.93,4.6-2,5.42-12.53-.32-14.15,4.5c-1.68,5,2,9.6,9.46,13.51S75.58,299.16,77,300s2.86,2.95.3,3.93-21.87,3.51-20.12,12.6S81.38,333.12,83.81,334s3,1.88,2.88,3.21S80,338.77,74.5,339.71s-11.63,3-10.18,8.15,14.89,15.73,47,18l14.93.09L134,353.18c15-28.42,13.14-45.43,9.52-49.39s-8.61.2-12.3,4.33-7.36,9.59-8.58,9-1.75-1.61-1.2-4.13,6-25.55-.75-31.84-19.14,8.76-21.33,10.41-3.23-.7-3.18-2.33.69-20,1.28-28.39-1.32-14-6.46-15.17c-4.95-1.18-8.55,6.76-11.3,9.63s-5.64-1.21-5.64-1.21-4.37-11.36-15.45-30.9-19.37-13.45-19.37-13.45" style="fill:#f5f5f5"></path><path d="M127.06,369.48C119,355.1,105.05,329.3,93,307.2s-23-42.06-31-56.49c-4-7.19-7.25-13-9.5-17.07-1.12-2-2-3.56-2.58-4.64-.29-.52-.51-.92-.66-1.21s-.21-.42-.21-.42.09.13.25.39l.7,1.19,2.65,4.6c2.31,4,5.6,9.81,9.63,17C70.31,264.94,81.3,284.9,93.38,307s26,47.92,34,62.34" style="fill:#e0e0e0"></path><path d="M54.8,274.65a4.52,4.52,0,0,1,1.05.26c.67.2,1.62.51,2.8.9,2.35.8,5.57,2,9.09,3.34l9,3.53,2.74,1.05a5,5,0,0,1,1,.42,4.76,4.76,0,0,1-1-.25c-.67-.2-1.62-.51-2.8-.92-2.34-.81-5.54-2-9.06-3.4l-9-3.46-2.75-1A5.28,5.28,0,0,1,54.8,274.65Z" style="fill:#e0e0e0"></path><path d="M81.48,283.17c-.12,0,2-6.78,4.78-15.05s5.09-15,5.21-14.91-2,6.78-4.77,15.06S81.6,283.21,81.48,283.17Z" style="fill:#e0e0e0"></path><path d="M98.5,317.93a4.7,4.7,0,0,1,.58-.94c.45-.66,1-1.48,1.7-2.46,1.44-2.08,3.41-5,5.47-8.22s3.83-6.27,5.09-8.46c.59-1,1.09-1.9,1.5-2.6a5.09,5.09,0,0,1,.59-.93,5,5,0,0,1-.43,1c-.31.63-.78,1.55-1.37,2.66-1.19,2.24-2.92,5.29-5,8.55s-4.09,6.14-5.59,8.17c-.76,1-1.38,1.83-1.83,2.38A5.51,5.51,0,0,1,98.5,317.93Z" style="fill:#e0e0e0"></path><path d="M72.67,315.53a4.72,4.72,0,0,1,1,0l2.76.15c2.34.14,5.56.37,9.11.66s6.78.57,9.11.8l2.75.29a4.28,4.28,0,0,1,1,.17,4.72,4.72,0,0,1-1,0l-2.76-.15c-2.33-.14-5.56-.37-9.11-.66s-6.77-.57-9.1-.79l-2.76-.3A4.44,4.44,0,0,1,72.67,315.53Z" style="fill:#e0e0e0"></path><path d="M83.79,348.12a7.35,7.35,0,0,1,1.31,0l3.54.18c3,.17,7.12.43,11.68.75s8.69.64,11.68.89l3.53.33a6.36,6.36,0,0,1,1.29.18,7.2,7.2,0,0,1-1.3,0l-3.54-.18c-3-.17-7.13-.43-11.69-.75s-8.69-.64-11.67-.89l-3.54-.33A6.72,6.72,0,0,1,83.79,348.12Z" style="fill:#e0e0e0"></path><path d="M116.05,350.17a7.75,7.75,0,0,1,.71-1.21l2-3.2c1.72-2.7,4.09-6.44,6.59-10.65s4.67-8.07,6.22-10.88l1.84-3.33a9,9,0,0,1,.72-1.19,7.79,7.79,0,0,1-.56,1.28c-.39.81-1,2-1.71,3.39-1.47,2.86-3.6,6.75-6.11,11s-4.92,7.93-6.72,10.59c-.9,1.33-1.64,2.4-2.17,3.13A8.12,8.12,0,0,1,116.05,350.17Z" style="fill:#e0e0e0"></path></g><g id="freepik--Gears--inject-41"><path d="M687.72,200.92l13.18-3.23-.4-22.44-13.28-2.77a55,55,0,0,0-5.84-13.42l7-11.6-16.15-15.59-11.35,7.43A54.66,54.66,0,0,0,647.3,134l-3.23-13.18-22.44.39-2.77,13.29a54.56,54.56,0,0,0-13.42,5.83l-11.6-7L578.25,149.4l7.43,11.34a54.81,54.81,0,0,0-5.35,13.62l-13.18,3.23.39,22.45,13.28,2.76a55,55,0,0,0,5.84,13.42l-7,11.6,16.15,15.59L607.12,236a55.23,55.23,0,0,0,13.62,5.36L624,254.52l22.45-.4,2.76-13.28A55,55,0,0,0,662.6,235l11.6,7,15.59-16.15-7.43-11.35A55.08,55.08,0,0,0,687.72,200.92Zm-35.67,2.71a24.08,24.08,0,1,1-.59-34A24.08,24.08,0,0,1,652.05,203.63Z" style="fill:#00B6E8"></path><g style="opacity:0.4"><path d="M687.72,200.92l13.18-3.23-.4-22.44-13.28-2.77a55,55,0,0,0-5.84-13.42l7-11.6-16.15-15.59-11.35,7.43A54.66,54.66,0,0,0,647.3,134l-3.23-13.18-22.44.39-2.77,13.29a54.56,54.56,0,0,0-13.42,5.83l-11.6-7L578.25,149.4l7.43,11.34a54.81,54.81,0,0,0-5.35,13.62l-13.18,3.23.39,22.45,13.28,2.76a55,55,0,0,0,5.84,13.42l-7,11.6,16.15,15.59L607.12,236a55.23,55.23,0,0,0,13.62,5.36L624,254.52l22.45-.4,2.76-13.28A55,55,0,0,0,662.6,235l11.6,7,15.59-16.15-7.43-11.35A55.08,55.08,0,0,0,687.72,200.92Zm-35.67,2.71a24.08,24.08,0,1,1-.59-34A24.08,24.08,0,0,1,652.05,203.63Z" style="fill:#fff"></path></g><path d="M523.43,56.77A39.43,39.43,0,0,1,533,52.6l2-9.52,16.08-.28,2.31,9.44a39.7,39.7,0,0,1,9.76,3.83l8.12-5.32,11.57,11.17-5,8.3A39.33,39.33,0,0,1,582,79.84l9.52,2,.28,16.08-9.44,2.31a39.27,39.27,0,0,1-3.84,9.75l5.33,8.13-11.17,11.57-8.3-5a39.53,39.53,0,0,1-9.62,4.18l-2,9.51-16.08.29-2.31-9.44a39.27,39.27,0,0,1-9.75-3.84l-8.13,5.32-11.57-11.16,5-8.31a39.36,39.36,0,0,1-4.18-9.62l-9.51-2L496,83.5l9.44-2.32a39.42,39.42,0,0,1,3.84-9.75L504,63.3l11.17-11.56,8.31,5ZM532,78.19a17.25,17.25,0,1,0,24.39-.43A17.25,17.25,0,0,0,532,78.19Z" style="fill:#00B6E8"></path><g style="opacity:0.8"><path d="M523.43,56.77A39.43,39.43,0,0,1,533,52.6l2-9.52,16.08-.28,2.31,9.44a39.7,39.7,0,0,1,9.76,3.83l8.12-5.32,11.57,11.17-5,8.3A39.33,39.33,0,0,1,582,79.84l9.52,2,.28,16.08-9.44,2.31a39.27,39.27,0,0,1-3.84,9.75l5.33,8.13-11.17,11.57-8.3-5a39.53,39.53,0,0,1-9.62,4.18l-2,9.51-16.08.29-2.31-9.44a39.27,39.27,0,0,1-9.75-3.84l-8.13,5.32-11.57-11.16,5-8.31a39.36,39.36,0,0,1-4.18-9.62l-9.51-2L496,83.5l9.44-2.32a39.42,39.42,0,0,1,3.84-9.75L504,63.3l11.17-11.56,8.31,5ZM532,78.19a17.25,17.25,0,1,0,24.39-.43A17.25,17.25,0,0,0,532,78.19Z" style="fill:#fff"></path></g><path d="M640.59,48.86a28.74,28.74,0,0,1,7.07-3.08l1.46-7L661,38.57l1.71,7a29.14,29.14,0,0,1,7.18,2.82l6-3.92,8.51,8.22-3.7,6.12a29.25,29.25,0,0,1,3.07,7.07l7,1.46.21,11.84L684,80.83A29,29,0,0,1,681.14,88l3.92,6-8.22,8.51-6.12-3.7a29.09,29.09,0,0,1-7.07,3.07l-1.46,7-11.83.2-1.71-6.94a29.56,29.56,0,0,1-7.18-2.83l-6,3.92L627,95l3.7-6.11a29.15,29.15,0,0,1-3.07-7.08l-7-1.46-.21-11.83,7-1.71a29.29,29.29,0,0,1,2.82-7.18l-3.92-6,8.22-8.51,6.12,3.71Zm6.3,15.76a12.7,12.7,0,1,0,18-.31A12.7,12.7,0,0,0,646.89,64.62Z" style="fill:#fff"></path><path d="M646.89,64.62a9.81,9.81,0,0,1,2.37-2.07,12.81,12.81,0,0,1,13.91,0,13,13,0,0,1,4.55,5.13A12.93,12.93,0,0,1,669,75.19a12.94,12.94,0,0,1-10.72,11.1,13,13,0,0,1-7.51-1A13.1,13.1,0,0,1,645.43,81a12.83,12.83,0,0,1-2.19-5.56,12.63,12.63,0,0,1,1.66-8.34,9.71,9.71,0,0,1,2-2.44c.07.06-.76.83-1.74,2.58a12.6,12.6,0,0,0-1.4,8.13A12.43,12.43,0,0,0,651,84.72a11.88,11.88,0,0,0,3.42,1,11.51,11.51,0,0,0,3.7-.08,12.31,12.31,0,0,0,10.13-10.5,11.4,11.4,0,0,0,0-3.69A11.68,11.68,0,0,0,667.12,68a12.38,12.38,0,0,0-9.64-6.91,12.63,12.63,0,0,0-8.07,1.69C647.7,63.83,647,64.69,646.89,64.62Z" style="fill:#00B6E8"></path><path d="M640.59,48.86a2.44,2.44,0,0,1-.4-.21L639,48l-4.61-2.72.14,0-8.17,8.56,0-.23,3.94,6,.07.11-.06.11a28.94,28.94,0,0,0-2.78,7.13l0,.14-.14,0-6.94,1.72.2-.26q.11,5.6.23,11.84l-.23-.28,7,1.44.18,0,0,.18a29.08,29.08,0,0,0,3.05,7l.1.17-.1.16-3.69,6.12-.06-.4,8.53,8.21-.42,0,6-3.93.18-.11.18.1a28.7,28.7,0,0,0,7.1,2.78l.2,0,0,.21c.54,2.18,1.12,4.55,1.71,7l-.35-.27,11.83-.22-.34.29c.46-2.21.95-4.6,1.45-7l.05-.22.21-.06a28.59,28.59,0,0,0,7-3h0l.19-.12.18.12,6.12,3.7-.45.06,8.22-8.51,0,.45-3.92-6-.12-.18.11-.18a28.89,28.89,0,0,0,2.79-7.1l0-.2.21-.05,7-1.7-.26.34q-.11-6.06-.2-11.83l.27.32-7-1.47-.19,0-.05-.19a29.06,29.06,0,0,0-3-7l-.1-.16.1-.17,3.71-6.1,0,.37-8.5-8.24.35,0-6,3.9-.13.09-.14-.08a29.07,29.07,0,0,0-7.11-2.82l-.14,0,0-.14c-.62-2.52-1.17-4.8-1.69-7l.22.16-11.84.16.16-.13c-.6,2.79-1.09,5.09-1.5,7l0,.07h-.07A29.9,29.9,0,0,0,642.28,48l-1.27.66-.42.22a2.37,2.37,0,0,1,.39-.27c.27-.17.68-.42,1.25-.72a28.21,28.21,0,0,1,5.4-2.2l-.08.09c.38-1.92.85-4.21,1.41-7l0-.12h.13L661,38.35h.17l0,.17c.54,2.15,1.1,4.42,1.73,6.94l-.18-.17A29.33,29.33,0,0,1,670,48.11h-.27l6-3.93.18-.12.16.15,8.53,8.21.18.16-.13.21-3.7,6.12v-.33A29.46,29.46,0,0,1,684,65.75l-.24-.23,7,1.44L691,67v.27q.11,5.76.22,11.83v.28l-.26.06-7,1.71.26-.26a29.33,29.33,0,0,1-2.86,7.27v-.37q1.93,3,3.92,6l.16.24-.2.21-8.22,8.52-.2.21-.25-.15-6.11-3.71h.37a29.29,29.29,0,0,1-7.16,3.11L664,102l-1.46,7,0,.28h-.29l-11.84.2h-.28l-.07-.28c-.59-2.4-1.17-4.77-1.7-7l.26.26a29.33,29.33,0,0,1-7.26-2.87h.35l-6,3.91-.23.15-.19-.18-8.51-8.24-.18-.18.13-.22,3.72-6.11v.33a29.2,29.2,0,0,1-3.1-7.16l.23.21-7-1.47-.23,0v-.22q-.09-6.24-.18-11.84v-.21l.2,0,6.95-1.69-.18.18A29.65,29.65,0,0,1,630,59.54v.22l-3.89-6-.08-.13.1-.1,8.27-8.47.06-.07.08,0,4.51,2.8,1.15.74Z" style="fill:#00B6E8"></path></g><g id="freepik--Window--inject-41"><rect x="143.5" y="106.76" width="473.77" height="278.19" style="fill:#fff"></rect><rect x="143.75" y="106.83" width="473.77" height="30.24" style="fill:#263238"></rect><path d="M302.13,168.23a6.35,6.35,0,1,1,6.36,6.15A6.09,6.09,0,0,1,302.13,168.23Zm11.42,0a5.08,5.08,0,1,0-5.06,5A4.9,4.9,0,0,0,313.55,168.23Z" style="fill:#263238"></path><path d="M326.64,169.73a4.39,4.39,0,0,1-4.52,4.63,4,4,0,0,1-3.46-1.79v5.06h-1.22V165.19h1.17V167a4,4,0,0,1,3.51-1.87A4.39,4.39,0,0,1,326.64,169.73Zm-1.22,0a3.39,3.39,0,1,0-3.39,3.54A3.35,3.35,0,0,0,325.42,169.73Z" style="fill:#263238"></path><path d="M337.06,170.11h-7.6a3.37,3.37,0,0,0,3.58,3.16,3.57,3.57,0,0,0,2.78-1.19l.69.8a4.8,4.8,0,0,1-8.27-3.15,4.37,4.37,0,0,1,4.43-4.61,4.33,4.33,0,0,1,4.41,4.61C337.08,169.84,337.06,170,337.06,170.11Zm-7.6-.91h6.44a3.23,3.23,0,0,0-6.44,0Z" style="fill:#263238"></path><path d="M344.16,165.12v1.19h-.29c-1.9,0-3.06,1.21-3.06,3.35v4.63h-1.22v-9.09h1.17V167A3.43,3.43,0,0,1,344.16,165.12Z" style="fill:#263238"></path><path d="M353.22,168.65v5.63H352v-1.42a3.4,3.4,0,0,1-3.12,1.5c-2.06,0-3.32-1.07-3.32-2.64,0-1.4.9-2.57,3.51-2.57H352v-.56c0-1.55-.88-2.4-2.57-2.4a4.69,4.69,0,0,0-3,1.07l-.55-.91a5.76,5.76,0,0,1,3.7-1.23C351.89,165.12,353.22,166.3,353.22,168.65Zm-1.23,2.9v-1.49h-2.85c-1.76,0-2.33.69-2.33,1.63s.84,1.71,2.3,1.71A2.9,2.9,0,0,0,352,171.55Z" style="fill:#263238"></path><path d="M361.34,173.72a2.89,2.89,0,0,1-1.92.64,2.4,2.4,0,0,1-2.66-2.64v-5.49h-1.62v-1h1.62v-2H358v2h2.76v1H358v5.42a1.46,1.46,0,0,0,1.57,1.66,2.05,2.05,0,0,0,1.35-.47Z" style="fill:#263238"></path><path d="M363.29,162.32a.89.89,0,0,1,.9-.86.87.87,0,1,1,0,1.74A.89.89,0,0,1,363.29,162.32Zm.28,2.87h1.23v9.09h-1.23Z" style="fill:#263238"></path><path d="M376.58,169v5.27h-1.23v-5.15c0-1.92-1-2.9-2.73-2.9a3,3,0,0,0-3.18,3.28v4.77h-1.22v-9.09h1.17v1.68a3.82,3.82,0,0,1,3.46-1.75C375.06,165.12,376.58,166.4,376.58,169Z" style="fill:#263238"></path><path d="M388.36,165.19v8c0,3.13-1.54,4.54-4.54,4.54a6.35,6.35,0,0,1-4.24-1.4l.63-.93a5.37,5.37,0,0,0,3.57,1.25c2.3,0,3.35-1.06,3.35-3.3v-1.16a4.07,4.07,0,0,1-3.54,1.76,4.41,4.41,0,1,1,0-8.81,4.08,4.08,0,0,1,3.59,1.82v-1.75Zm-1.19,4.32a3.45,3.45,0,1,0-3.46,3.33A3.25,3.25,0,0,0,387.17,169.51Z" style="fill:#263238"></path><path d="M395.22,173l.78-1.75a6.68,6.68,0,0,0,4,1.33c1.88,0,2.68-.67,2.68-1.57,0-2.61-7.19-.9-7.19-5.39,0-2,1.55-3.61,4.87-3.61a7.69,7.69,0,0,1,4,1.07l-.71,1.75a6.72,6.72,0,0,0-3.34-1c-1.86,0-2.62.72-2.62,1.64,0,2.57,7.17.9,7.17,5.34,0,1.93-1.57,3.59-4.89,3.59A7.82,7.82,0,0,1,395.22,173Z" style="fill:#263238"></path><path d="M415.36,165.05l-4.31,10c-.85,2.09-2,2.73-3.56,2.73a3.79,3.79,0,0,1-2.47-.85l.86-1.59a2.33,2.33,0,0,0,1.59.64c.76,0,1.21-.36,1.62-1.28l.16-.36-4-9.26h2.24l2.9,6.83,2.92-6.83Z" style="fill:#263238"></path><path d="M415.54,173.36l.83-1.64a6.14,6.14,0,0,0,3.21.92c1.37,0,1.94-.38,1.94-1,0-1.77-5.7-.11-5.7-3.79,0-1.74,1.57-2.88,4.06-2.88a7.35,7.35,0,0,1,3.45.79l-.83,1.64a5.12,5.12,0,0,0-2.64-.69c-1.31,0-1.94.44-1.94,1,0,1.87,5.7.21,5.7,3.82,0,1.72-1.59,2.85-4.18,2.85A7.31,7.31,0,0,1,415.54,173.36Z" style="fill:#263238"></path><path d="M431,173.78a3.44,3.44,0,0,1-2.08.62,2.83,2.83,0,0,1-3.17-3.11v-4.44h-1.52v-1.73h1.52V163h2.15v2.11h2.47v1.73h-2.47v4.39c0,.89.45,1.38,1.28,1.38a1.94,1.94,0,0,0,1.21-.38Z" style="fill:#263238"></path><path d="M441.14,170.36h-7.23a2.79,2.79,0,0,0,3,2.21,3.3,3.3,0,0,0,2.51-1l1.16,1.33a4.68,4.68,0,0,1-3.72,1.51c-3.09,0-5.09-2-5.09-4.74a4.58,4.58,0,0,1,4.76-4.71,4.5,4.5,0,0,1,4.67,4.77C441.18,169.89,441.16,170.15,441.14,170.36Zm-7.25-1.44h5.23a2.5,2.5,0,0,0-2.61-2.24A2.54,2.54,0,0,0,433.89,168.92Z" style="fill:#263238"></path><path d="M458.68,169v5.29h-2.16v-5c0-1.64-.76-2.44-2.07-2.44s-2.4.93-2.4,2.77v4.68h-2.16v-5c0-1.64-.76-2.44-2.08-2.44s-2.4.93-2.4,2.77v4.68h-2.16v-9.23h2.06v1.18a3.81,3.81,0,0,1,3-1.28,3.45,3.45,0,0,1,3.11,1.54A4.31,4.31,0,0,1,454.9,165C457.12,165,458.68,166.21,458.68,169Z" style="fill:#263238"></path><path d="M417.38,360l.65-.06a14.85,14.85,0,0,0,1.93-.18,18.33,18.33,0,0,0,7-2.43,19.07,19.07,0,0,0-5.61-35.15,24,24,0,0,0-5.12-.41H399.66l-49.77,0a19,19,0,0,0-18.47,14.64,20,20,0,0,0-.43,6.06,20.22,20.22,0,0,0,1.47,5.78,19.09,19.09,0,0,0,7.48,8.64,21,21,0,0,0,2.48,1.31,20.91,20.91,0,0,0,5.32,1.4c.91.08,1.8.13,2.71.13l10.55,0,18.92,0,27.41.08,7.45.05,1.94,0c.43,0,.66,0,.66,0l-.66,0-1.94,0-7.45.05-27.41.09-18.92,0H350.45c-.9,0-1.84-.05-2.76-.13a20.31,20.31,0,0,1-2.76-.52,21.77,21.77,0,0,1-2.69-.9,20.84,20.84,0,0,1-2.56-1.35,19.57,19.57,0,0,1-7.68-8.84,20.61,20.61,0,0,1-1.51-5.93,20.17,20.17,0,0,1,.44-6.23,19.51,19.51,0,0,1,6.7-10.7,19.75,19.75,0,0,1,12.26-4.34l49.77,0h16.53a25.7,25.7,0,0,1,5.21.43,19.39,19.39,0,0,1,13.53,27.17,19.2,19.2,0,0,1-7.91,8.59,18.06,18.06,0,0,1-7,2.35A15.2,15.2,0,0,1,418,360Z" style="fill:#00B6E8"></path><path d="M368.35,343.47l.56-1.26a4.86,4.86,0,0,0,2.89,1c1.36,0,1.93-.48,1.93-1.13,0-1.89-5.19-.65-5.19-3.9,0-1.41,1.12-2.61,3.52-2.61a5.54,5.54,0,0,1,2.91.78l-.52,1.26a4.84,4.84,0,0,0-2.41-.69c-1.34,0-1.89.53-1.89,1.19,0,1.86,5.18.65,5.18,3.86,0,1.39-1.14,2.59-3.53,2.59A5.58,5.58,0,0,1,368.35,343.47Z" style="fill:#00B6E8"></path><path d="M380.79,344a2.43,2.43,0,0,1-1.5.45,2,2,0,0,1-2.29-2.24V339h-1.1v-1.25H377v-1.52h1.56v1.52h1.78V339h-1.78v3.17c0,.65.32,1,.92,1a1.4,1.4,0,0,0,.88-.28Z" style="fill:#00B6E8"></path><path d="M387.66,340.49v3.91h-1.48v-.81a2.36,2.36,0,0,1-2.09.89c-1.53,0-2.49-.83-2.49-2s.75-2,2.77-2h1.73v-.1c0-.91-.55-1.45-1.66-1.45a3.28,3.28,0,0,0-2,.67l-.61-1.14a4.68,4.68,0,0,1,2.82-.82C386.54,337.66,387.66,338.57,387.66,340.49Zm-1.56,1.82v-.77h-1.62c-1.06,0-1.34.4-1.34.89s.47.92,1.27.92A1.71,1.71,0,0,0,386.1,342.31Z" style="fill:#00B6E8"></path><path d="M393.51,337.66v1.48a2.63,2.63,0,0,0-.36,0,1.82,1.82,0,0,0-1.94,2.06v3.24h-1.56v-6.67h1.49v1A2.61,2.61,0,0,1,393.51,337.66Z" style="fill:#00B6E8"></path><path d="M399.08,344a2.42,2.42,0,0,1-1.49.45,2,2,0,0,1-2.3-2.24V339h-1.1v-1.25h1.1v-1.52h1.56v1.52h1.79V339h-1.79v3.17c0,.65.33,1,.92,1a1.4,1.4,0,0,0,.88-.28Z" style="fill:#00B6E8"></path><path d="M268.45,211.48c1,5.5-5.11,12.78-10.29,11.78C257,216.88,264.32,210.79,268.45,211.48Z" style="fill:#00B6E8"></path><path d="M295.65,292.46a10.47,10.47,0,0,0,3.59-.76,9.55,9.55,0,0,0,5.84-8.11c0-9.23,0-22.57-.05-39,0-8.25,0-17.27,0-27,0-2.42,0-4.88,0-7.39,0-1.25,0-2.52,0-3.77a9.34,9.34,0,0,0-6.52-8.51,11.5,11.5,0,0,0-3.9-.42h-4.06l-70.91,0a9.31,9.31,0,0,0-7.74,4.12,9.52,9.52,0,0,0-1.52,4.2c-.11,1.49,0,3.07-.06,4.59v18.09c0,11.86,0,23.3,0,34.2,0,5.45,0,10.77,0,15.93v3.85a10.05,10.05,0,0,0,.58,3.63,9.41,9.41,0,0,0,4.74,5.21,9.2,9.2,0,0,0,3.39.88c1.16.07,2.36,0,3.52,0h19.82l39,.09,10.62.05,2.76,0,.94,0-.94,0-2.76,0-10.62.05-39,.08-12.93,0h-6.89c-1.17,0-2.33,0-3.55,0a9.77,9.77,0,0,1-8.52-6.36,10.39,10.39,0,0,1-.61-3.79c0-1.28,0-2.56,0-3.85,0-5.16,0-10.48,0-15.93,0-10.9,0-22.34,0-34.2q0-8.89,0-18.09v-2.31c0-.76,0-1.53.06-2.33a9.83,9.83,0,0,1,9.78-8.79l70.91,0h4.06a12,12,0,0,1,4,.45,9.9,9.9,0,0,1,5.89,5.15,9.67,9.67,0,0,1,.94,3.79c0,1.29,0,2.54,0,3.79q0,3.76,0,7.39c0,9.7,0,18.72,0,27,0,16.49,0,29.82-.12,39.05a9.65,9.65,0,0,1-6,8.2,9.71,9.71,0,0,1-2.69.64Z" style="fill:#00B6E8"></path><path d="M263.29,253.15a11.39,11.39,0,0,1,8.5-11c-1.4-2-2.76-3.72-2.76-4.69,0-6.12-5.11-11.68-11.42-11.68a11.78,11.78,0,0,0-11.43,11.68c0,1.68-4.05,5.62-5.36,9.22h0a18.86,18.86,0,0,0-1.89,8.16c0,10,8.36,17.17,18.68,17.17a19,19,0,0,0,15.63-7.56A11.39,11.39,0,0,1,263.29,253.15Z" style="fill:#00B6E8"></path><path d="M420.09,292.46a10.43,10.43,0,0,0,3.59-.76,9.32,9.32,0,0,0,3.57-2.6,9.44,9.44,0,0,0,2.27-5.51c0-9.23,0-22.57,0-39,0-8.25,0-17.27,0-27q0-3.63,0-7.39c0-1.25,0-2.52,0-3.77a9.2,9.2,0,0,0-.9-3.62,9.44,9.44,0,0,0-5.62-4.89,11.44,11.44,0,0,0-3.89-.42h-4.06l-70.92,0a9.32,9.32,0,0,0-9.26,8.32c-.11,1.49,0,3.07-.05,4.59q0,9.18,0,18.09c0,11.86,0,23.3,0,34.2,0,5.45,0,10.77,0,15.93,0,1.29,0,2.57,0,3.85a9.85,9.85,0,0,0,.59,3.63,9.38,9.38,0,0,0,4.74,5.21,9.1,9.1,0,0,0,3.38.88c1.16.07,2.36,0,3.53,0h19.82l39,.09,10.62.05,2.76,0,.94,0-.94,0-2.76,0-10.62.05-39,.08-12.94,0h-6.88c-1.18,0-2.34,0-3.56,0a9.75,9.75,0,0,1-8.51-6.36,10.4,10.4,0,0,1-.62-3.79v-3.85c0-5.16,0-10.48,0-15.93,0-10.9,0-22.34,0-34.2v-20.4c0-.76,0-1.53.05-2.33a9.81,9.81,0,0,1,5.14-7.63A10.12,10.12,0,0,1,344,197l70.92,0H419a12,12,0,0,1,4,.45,9.78,9.78,0,0,1,6.83,8.94c0,1.29,0,2.54,0,3.79q0,3.76,0,7.39c0,9.7,0,18.72,0,27,0,16.49,0,29.82-.12,39.05a9.56,9.56,0,0,1-8.69,8.84Z" style="fill:#e0e0e0"></path><path d="M382.05,243.29a23.83,23.83,0,0,0,18.72-9.06c0-6.18-3.91-10.26-8.66-12.57h0c0-.9,0-1.8,0-2.7a1.28,1.28,0,1,0-2.56-.09c0,.58,0,1.17,0,1.76a23.7,23.7,0,0,0-7.49-1.29,26.33,26.33,0,0,0-7.67,1.16c0-.55,0-1.09,0-1.63a1.23,1.23,0,0,0-1.3-1.37c-.7,0-1.15.33-1.18,1.18s-.06,1.87-.07,2.8c-4.67,2.14-8.47,6.1-8.47,12.76A23.81,23.81,0,0,0,382.05,243.29Zm6.17-16.51a2.59,2.59,0,1,1-2.59,2.59A2.6,2.6,0,0,1,388.22,226.78ZM385.63,234a.5.5,0,0,1,0,1h-7.16a.5.5,0,0,1,0-1Zm-9.75-7.24a2.59,2.59,0,1,1-2.59,2.59A2.59,2.59,0,0,1,375.88,226.78Z" style="fill:#00B6E8"></path><path d="M382.05,246.15a23.81,23.81,0,0,1-18.49-8.78c0,.19,0,.38,0,.58,0,17.86,8.28,32.34,18.5,32.34s18.5-14.48,18.5-32.34c0-.2,0-.39,0-.58A23.79,23.79,0,0,1,382.05,246.15Z" style="fill:#00B6E8"></path><path d="M544.53,292.46a10.39,10.39,0,0,0,3.59-.76,9.51,9.51,0,0,0,5.84-8.11c0-9.23,0-22.57,0-39,0-8.25,0-17.27,0-27v-7.39c0-1.25,0-2.52,0-3.77a9.3,9.3,0,0,0-6.52-8.51,11.41,11.41,0,0,0-3.89-.42h-4.06l-70.91,0a9.32,9.32,0,0,0-9.27,8.32c-.1,1.49,0,3.07-.05,4.59v18.09c0,11.86,0,23.3,0,34.2,0,5.45,0,10.77,0,15.93v3.85a9.84,9.84,0,0,0,.58,3.63,9.41,9.41,0,0,0,4.74,5.21,9.15,9.15,0,0,0,3.38.88c1.17.07,2.37,0,3.53,0h19.82l39.05.09,10.61.05,2.76,0c.63,0,.94,0,.94,0s-.31,0-.94,0l-2.76,0-10.61.05-39.05.08-12.94,0h-6.88c-1.18,0-2.34,0-3.55,0a9.75,9.75,0,0,1-8.52-6.36,10.62,10.62,0,0,1-.62-3.79v-3.85c0-5.16,0-10.48,0-15.93,0-10.9,0-22.34,0-34.2q0-8.89,0-18.09v-2.31c0-.76,0-1.53.06-2.33a9.83,9.83,0,0,1,5.13-7.63,10.16,10.16,0,0,1,4.65-1.16l70.91,0h4.06a12,12,0,0,1,4,.45,9.83,9.83,0,0,1,6.83,8.94c0,1.29,0,2.54,0,3.79v7.39c0,9.7,0,18.72,0,27,0,16.49,0,29.82-.11,39.05a9.58,9.58,0,0,1-8.69,8.84Z" style="fill:#e0e0e0"></path><rect x="508.11" y="226.78" width="20.34" height="36.33" style="fill:#00B6E8"></rect><rect x="484.77" y="226.78" width="20.34" height="36.33" style="fill:#00B6E8"></rect><polygon points="442.29 356.98 432.68 351.4 423.08 345.83 423.05 356.93 423.02 368.04 429.59 364.27 435.24 374.12 441.38 370.6 435.72 360.75 442.29 356.98" style="fill:#263238"></polygon><circle cx="162.29" cy="122.04" r="5.19" style="fill:#fff"></circle><path d="M183.77,122a5.19,5.19,0,1,1-5.19-5.18A5.19,5.19,0,0,1,183.77,122Z" style="fill:#fff"></path><circle cx="194.87" cy="122.04" r="5.19" style="fill:#fff"></circle><path d="M617.51,385c0-1.63-.07-107.55-.2-278.19l.2.2-473.73.06h0l.26-.26c0,98.5,0,192.56,0,278.19l-.24-.24,473.76.24-473.76.24h-.25V385c0-85.63,0-179.69,0-278.19v-.26h.29l473.73.06h.2v.2C617.59,277.47,617.51,383.39,617.51,385Z" style="fill:#263238"></path></g><g id="freepik--Plant--inject-41"><rect x="578.55" y="406.12" width="73.14" height="10.05" style="fill:#263238"></rect><path d="M651.82,416.29H578.43V406h73.39ZM578.68,416h72.89v-9.8H578.68Z" style="fill:#263238"></path><polygon points="585.34 412.82 595.86 464.76 634.82 464.76 645 416.17 585.34 412.82" style="fill:#263238"></polygon><polygon points="585.34 459.85 590.95 467.57 638.3 467.57 645 459.85 585.34 459.85" style="fill:#455a64"></polygon><path d="M612.38,414.34c-.15,0-.33-24.06-.41-53.74s0-53.74.11-53.74.32,24.05.41,53.74S612.52,414.34,612.38,414.34Z" style="fill:#263238"></path><path d="M628.67,354.12a2.13,2.13,0,0,1-.2.56c-.17.41-.38.93-.65,1.56l-.48,1.12-.48,1.37-.57,1.57c-.19.55-.35,1.16-.54,1.78a72.41,72.41,0,0,0-2,9,112,112,0,0,0-1.14,11.2,152.23,152.23,0,0,0,.58,20.45c.24,2.61.47,4.72.65,6.18q.11,1,.18,1.68a2.19,2.19,0,0,1,0,.59,2.26,2.26,0,0,1-.13-.57c-.07-.44-.17-1-.28-1.67-.24-1.45-.53-3.56-.81-6.17a135.15,135.15,0,0,1-.74-20.52A104.33,104.33,0,0,1,623.23,371a67.64,67.64,0,0,1,2.17-9c.2-.62.37-1.23.58-1.78s.42-1.07.61-1.56.36-.94.52-1.36.37-.78.53-1.11l.74-1.52A3,3,0,0,1,628.67,354.12Z" style="fill:#263238"></path><path d="M626.8,334.66a4.23,4.23,0,0,1-.23.8l-.76,2.23c-.17.49-.36,1-.56,1.62l-.59,1.94c-.43,1.39-.92,3-1.37,4.75-.23.89-.47,1.82-.73,2.79s-.45,2-.68,3c-.52,2.09-.88,4.37-1.36,6.74-.8,4.78-1.51,10.07-2,15.64s-.66,10.91-.74,15.75.05,9.22.25,12.88c.07,1.84.18,3.49.28,5s.17,2.7.27,3.73.13,1.77.17,2.35a4.34,4.34,0,0,1,0,.83,5,5,0,0,1-.13-.82c-.07-.58-.16-1.36-.28-2.35s-.24-2.27-.35-3.72-.27-3.11-.36-4.95c-.24-3.66-.34-8-.36-12.9s.24-10.2.7-15.79,1.22-10.89,2-15.68c.49-2.38.87-4.66,1.4-6.76l.72-3c.27-1,.52-1.9.77-2.78.46-1.78,1-3.36,1.44-4.75.23-.69.44-1.34.63-1.93s.42-1.12.61-1.6c.35-.93.64-1.66.85-2.21A5.18,5.18,0,0,1,626.8,334.66Z" style="fill:#263238"></path><path d="M607.75,418.6a1.33,1.33,0,0,1,0-.28c0-.22,0-.49-.07-.83,0-.77-.12-1.84-.21-3.19-.18-2.81-.43-6.8-.74-11.72-.63-9.89-1.55-23.56-3.22-38.6-.85-7.51-1.83-14.65-2.86-21.12-.54-3.23-1-6.31-1.6-9.17s-1.07-5.52-1.58-7.95-1-4.6-1.45-6.53-.83-3.56-1.17-4.91-.58-2.35-.76-3.1c-.08-.33-.14-.6-.19-.81a.85.85,0,0,1,0-.28,1.1,1.1,0,0,1,.09.27c.07.21.14.47.24.8.21.74.49,1.77.85,3.07s.82,3,1.27,4.9,1,4.09,1.52,6.52,1.11,5.07,1.65,7.94,1.09,5.94,1.65,9.17c1,6.48,2,13.62,2.9,21.15,1.67,15,2.53,28.73,3.07,38.63.27,4.95.46,9,.57,11.73,0,1.36.09,2.42.12,3.19,0,.34,0,.62,0,.83A1.29,1.29,0,0,1,607.75,418.6Z" style="fill:#263238"></path><path d="M611.78,318.43c-.32-3.41-3.76-6-7.18-6s-6.62,2-8.71,4.73a27.13,27.13,0,0,0-4.2,9.3c-2.3,8-3.56,16.47-2.58,24.77s4.36,16.46,10.31,22.33c1,.95,2.22,1.9,3.55,1.62a4.28,4.28,0,0,0,1.87-1.16,55.41,55.41,0,0,0,18-42.14c-.09-3.16-.51-6.44-2.25-9.07s-5.82-5.42-8.8-4.36" style="fill:#00B6E8"></path><path d="M586.22,291.12q-2.41,4.36-4.82,8.73c-.12.21-.27.44-.5.45s-.44-.21-.58-.43l-12.75-19.56,2.94-1.67Z" style="fill:#00B6E8"></path><g style="opacity:0.2"><path d="M586.22,291.12q-2.41,4.36-4.82,8.73c-.12.21-.27.44-.5.45s-.44-.21-.58-.43l-12.75-19.56,2.94-1.67Z"></path></g><path d="M612.08,306.86,568.59,281.2a2.09,2.09,0,0,1-1.06-1.07,2,2,0,0,1,.77-1.74,30,30,0,0,1,23.24-9.13,26.52,26.52,0,0,1,21,13.06c4.2,7.5,4.34,17.42-.47,24.54" style="fill:#00B6E8"></path><path d="M574.86,273a2,2,0,0,1,.57-.08c.37,0,.93-.08,1.64-.07a31.38,31.38,0,0,1,6,.48,34.84,34.84,0,0,1,8.6,2.61,35.21,35.21,0,0,1,19.55,22.85,33,33,0,0,1,1.08,6,9.54,9.54,0,0,1,.06,1.27,2.14,2.14,0,0,1-.33,1,7.6,7.6,0,0,0,.07-2.2,38.37,38.37,0,0,0-1.23-5.88A35.55,35.55,0,0,0,583,273.7a37.66,37.66,0,0,0-6-.64C575.65,273,574.86,273.05,574.86,273Z" style="fill:#263238"></path><path d="M606.19,289.15a11.19,11.19,0,0,1-2.2,1c-1.38.54-3.32,1.24-5.49,1.93s-4.15,1.23-5.59,1.59a10.61,10.61,0,0,1-2.37.45,11.3,11.3,0,0,1,2.27-.81l5.54-1.73,5.52-1.78A11.11,11.11,0,0,1,606.19,289.15Z" style="fill:#263238"></path><path d="M599.34,270.75a30.11,30.11,0,0,1,.25,9.72,30.11,30.11,0,0,1-.25-4.85A31.34,31.34,0,0,1,599.34,270.75Z" style="fill:#263238"></path><path d="M568.21,280.71a19.21,19.21,0,0,1,3.16-1.11c2-.61,4.73-1.38,7.79-2.12s5.87-1.31,7.91-1.66a19.08,19.08,0,0,1,3.32-.45,24.12,24.12,0,0,1-3.25.81c-2,.45-4.79,1.07-7.85,1.81s-5.82,1.45-7.82,2A23.53,23.53,0,0,1,568.21,280.71Z" style="fill:#263238"></path><path d="M593.73,311c-3.74-2.84-7.69-3.4-12.38-3.21a37.82,37.82,0,0,0-13.56,3.5c-7.33,3.21-14.22,7.94-18.6,14.64s-5.91,15.57-2.63,22.87a3.28,3.28,0,0,0,1.49,1.81,3.54,3.54,0,0,0,2.45-.19c8.34-2.72,16.74-5.47,24.41-9.73s14.65-10.18,18.76-17.93a15.51,15.51,0,0,0,2-6,7.38,7.38,0,0,0-1.92-5.81" style="fill:#00B6E8"></path><path d="M593.81,310.15a3.25,3.25,0,0,1-.6.24l-1.75.6-1.27.43c-.45.16-.94.37-1.47.57-1.06.43-2.28.85-3.57,1.48l-2,.93c-.71.33-1.42.73-2.17,1.11-1.51.75-3,1.7-4.67,2.66a73.75,73.75,0,0,0-18.39,16.18c-1.17,1.5-2.3,2.89-3.23,4.3-.47.69-1,1.34-1.38,2l-1.18,1.9c-.79,1.2-1.37,2.37-1.93,3.36l-.76,1.39-.57,1.2-.82,1.66a4.46,4.46,0,0,1-.32.56,2.94,2.94,0,0,1,.22-.6l.73-1.7.54-1.23c.21-.44.47-.91.73-1.42.53-1,1.09-2.19,1.86-3.4l1.16-1.94c.41-.67.89-1.33,1.36-2,.92-1.42,2.05-2.84,3.21-4.35A71.82,71.82,0,0,1,576,317.76c1.65-1,3.2-1.9,4.73-2.63.75-.38,1.47-.77,2.19-1.09l2.07-.91c1.3-.6,2.54-1,3.61-1.41.54-.19,1-.39,1.5-.54l1.29-.38,1.78-.51A2.65,2.65,0,0,1,593.81,310.15Z" style="fill:#263238"></path><path d="M565.7,326a195.11,195.11,0,0,1-19.45,5.36,95.05,95.05,0,0,1,9.65-2.93A97.38,97.38,0,0,1,565.7,326Z" style="fill:#263238"></path><path d="M564.21,345.44a13.92,13.92,0,0,1-.2-2.74c0-1.7,0-4.05,0-6.64s.22-4.93.37-6.63a13.74,13.74,0,0,1,.35-2.73,13.68,13.68,0,0,1,0,2.75c0,1.86-.13,4.12-.21,6.62s-.12,4.77-.17,6.63A13.74,13.74,0,0,1,564.21,345.44Z" style="fill:#263238"></path><path d="M581.59,336.37A93.63,93.63,0,0,1,580.45,326a92.81,92.81,0,0,1-.56-10.37A93.63,93.63,0,0,1,581,326,92.81,92.81,0,0,1,581.59,336.37Z" style="fill:#263238"></path><path d="M560.9,315a22,22,0,0,1,2.85-.06c1.77,0,4.2.05,6.88.11s5.11.13,6.87.21a22.07,22.07,0,0,1,2.85.19,28.11,28.11,0,0,1-2.86.06c-1.76,0-4.19,0-6.88-.11s-5.11-.14-6.87-.21A21.78,21.78,0,0,1,560.9,315Z" style="fill:#263238"></path><path d="M601.28,374.68a4.5,4.5,0,0,1-.06-.58c0-.44,0-1-.07-1.67-.07-1.46-.08-3.56,0-6.16s.23-5.7.54-9.12.83-7.18,1.53-11.09,1.58-7.6,2.47-10.93,1.84-6.29,2.72-8.74,1.62-4.43,2.19-5.77c.27-.63.49-1.14.66-1.55a2.1,2.1,0,0,1,.27-.52,3,3,0,0,1-.17.56c-.15.41-.34.93-.57,1.58-.51,1.36-1.22,3.34-2,5.81s-1.72,5.43-2.6,8.75-1.71,7-2.43,10.9-1.2,7.63-1.56,11-.56,6.5-.65,9.09-.14,4.69-.14,6.14c0,.68,0,1.24,0,1.68A2,2,0,0,1,601.28,374.68Z" style="fill:#263238"></path><path d="M603.58,346.21a11.84,11.84,0,0,1-1.74,1.9c-1.12,1.12-2.72,2.63-4.54,4.23s-3.53,3-4.79,4a11.76,11.76,0,0,1-2.11,1.47,12.91,12.91,0,0,1,1.88-1.75L597,352l4.63-4.11A13.55,13.55,0,0,1,603.58,346.21Z" style="fill:#263238"></path><path d="M617.34,357.3a20.62,20.62,0,0,1-1.84-2.56l-4.3-6.27-4.39-6.21a21.26,21.26,0,0,1-1.76-2.63,17.35,17.35,0,0,1,2.06,2.41c1.2,1.53,2.82,3.69,4.52,6.13s3.16,4.7,4.17,6.37A17.1,17.1,0,0,1,617.34,357.3Z" style="fill:#263238"></path><path d="M610.13,322.43c.08.12-4.49,3.2-10.21,6.87s-10.41,6.56-10.49,6.44,4.49-3.2,10.21-6.88S610.05,322.31,610.13,322.43Z" style="fill:#263238"></path><path d="M623,336.34a84.31,84.31,0,0,1-6.92-6.39,85.35,85.35,0,0,1-6.55-6.76,85,85,0,0,1,6.91,6.39A86.7,86.7,0,0,1,623,336.34Z" style="fill:#263238"></path><path d="M626.27,336.06l3.92-.32a19.45,19.45,0,0,0,7.93-2.43,30.27,30.27,0,0,1,3.69-1.85c4.86-1.95,10.27-1.6,15.49-1.87a63.91,63.91,0,0,0,24.64-6.3,2.37,2.37,0,0,0,1.08-1c.8-1.47-.69-2.78-2-3.57-6.62-4.08-13.35-8.2-20.85-10.23s-16-1.68-22.41,2.73c-7.51,5.17-10.24,15.78-11.51,24.81" style="fill:#00B6E8"></path><path d="M683.11,321.84a4.3,4.3,0,0,1-.67-.31l-1.86-1c-1.61-.85-3.94-2.1-6.87-3.51a65,65,0,0,0-10.64-4.1,35.17,35.17,0,0,0-13.78-1.11,23.53,23.53,0,0,0-12.57,5.39,28.08,28.08,0,0,0-6.55,9.2c-1.37,2.94-2.22,5.44-2.84,7.15l-.7,2a3,3,0,0,1-.28.68,6,6,0,0,1,.18-.71l.6-2a66.88,66.88,0,0,1,2.71-7.25,27.92,27.92,0,0,1,6.56-9.4,23.82,23.82,0,0,1,12.82-5.55,35.15,35.15,0,0,1,14,1.17,62.35,62.35,0,0,1,10.67,4.23c2.92,1.46,5.22,2.76,6.81,3.66l1.81,1.06A4.18,4.18,0,0,1,683.11,321.84Z" style="fill:#263238"></path><path d="M673.68,326.9c-.08.12-5.21-3.2-11.47-7.42S651,311.75,651,311.64s5.21,3.2,11.47,7.41S673.76,326.78,673.68,326.9Z" style="fill:#263238"></path><path d="M668.2,311.36a12,12,0,0,1-3.73.68,13.19,13.19,0,0,1-3.82-.05,24.68,24.68,0,0,1,3.77-.39A25.06,25.06,0,0,1,668.2,311.36Z" style="fill:#263238"></path><path d="M645.73,308.44a10,10,0,0,1-1.68,2.63,11.19,11.19,0,0,1-2.14,2.42,10,10,0,0,1,1.69-2.63A11,11,0,0,1,645.73,308.44Z" style="fill:#263238"></path><path d="M650.33,329.92a13.11,13.11,0,0,1-2.47-1.33c-1.48-.9-3.49-2.22-5.63-3.78s-4-3-5.38-4.1a15.51,15.51,0,0,1-2.14-1.83,15.06,15.06,0,0,1,2.36,1.54l5.47,4c2.13,1.55,4.09,2.91,5.52,3.89A16.72,16.72,0,0,1,650.33,329.92Z" style="fill:#263238"></path><path d="M632.05,352.74c-3.75-1-8.21,2.65-9,6.45s.65,7.67,2.32,11.17a56.85,56.85,0,0,0,15.48,20.25c6.7,5.34,15.1,8.76,23.67,8.72-1.58-7.35.42-15-.46-22.5a29.28,29.28,0,0,0-25.92-25.67c-2.39-.25-5.16-.63-6.11,1.58" style="fill:#00B6E8"></path><path d="M664.54,399.33a2.83,2.83,0,0,1-.53-.25,8.9,8.9,0,0,1-1.4-.94,14.46,14.46,0,0,1-3.7-4.94c-.6-1.16-1.26-2.42-1.92-3.82l-2-4.45a41.74,41.74,0,0,0-2.48-4.76,37.8,37.8,0,0,0-3.4-4.63c-2.56-3-5.31-5.61-7.7-8.1a53.35,53.35,0,0,1-5.87-7,26.19,26.19,0,0,1-2.87-5.48c-.24-.69-.41-1.23-.5-1.61a2.25,2.25,0,0,1-.11-.57c.05,0,.26.76.8,2.1a28,28,0,0,0,3,5.35,55.8,55.8,0,0,0,5.91,6.91c2.39,2.46,5.16,5.06,7.75,8.1a36.71,36.71,0,0,1,3.44,4.71,42.48,42.48,0,0,1,2.48,4.82l2,4.47c.62,1.39,1.27,2.66,1.85,3.83a14.9,14.9,0,0,0,3.5,5C663.83,398.93,664.57,399.28,664.54,399.33Z" style="fill:#263238"></path><path d="M645.18,393.22a11.13,11.13,0,0,1,.34-2.52c.3-1.54.78-3.66,1.43-6s1.34-4.36,1.9-5.83a10.83,10.83,0,0,1,1-2.33,13.16,13.16,0,0,1-.68,2.45c-.46,1.5-1.09,3.56-1.74,5.86s-1.18,4.38-1.57,5.9A14.06,14.06,0,0,1,645.18,393.22Z" style="fill:#263238"></path><path d="M663.83,375.17a15.63,15.63,0,0,1-2.64-.6c-1.61-.42-3.84-1-6.32-1.56s-4.74-1-6.37-1.3a16.38,16.38,0,0,1-2.65-.58,12.85,12.85,0,0,1,2.71.21c1.65.22,3.94.6,6.43,1.16s4.71,1.2,6.31,1.71A13.64,13.64,0,0,1,663.83,375.17Z" style="fill:#263238"></path><path d="M631.29,380.42a14.67,14.67,0,0,1,.4-2.92c.33-1.79.86-4.24,1.56-6.93s1.44-5.08,2-6.8a14.76,14.76,0,0,1,1.07-2.75,18.62,18.62,0,0,1-.72,2.86c-.5,1.74-1.18,4.15-1.88,6.82s-1.28,5.11-1.7,6.88A19.06,19.06,0,0,1,631.29,380.42Z" style="fill:#263238"></path><path d="M655.24,359.45c0,.14-4.69-.24-10.44-.85s-10.4-1.22-10.38-1.36,4.69.24,10.44.84A101.35,101.35,0,0,1,655.24,359.45Z" style="fill:#263238"></path><path d="M651.82,416.13c0,.14-16.43.26-36.69.26s-36.7-.12-36.7-.26,16.43-.27,36.7-.27S651.82,416,651.82,416.13Z" style="fill:#455a64"></path><path d="M640.39,437.27c0,.14-11.07.26-24.72.26s-24.73-.12-24.73-.26S602,437,615.67,437,640.39,437.12,640.39,437.27Z" style="fill:#455a64"></path><path d="M640,440.29c0,.14-10.88.26-24.29.26s-24.3-.12-24.3-.26,10.88-.26,24.3-.26S640,440.15,640,440.29Z" style="fill:#455a64"></path><path d="M640.82,434.78c0,.14-11.45.26-25.57.26s-25.57-.12-25.57-.26,11.44-.26,25.57-.26S640.82,434.63,640.82,434.78Z" style="fill:#455a64"></path></g><g id="freepik--Floor--inject-41"><path d="M679.91,467.57c0,.14-136.52.26-304.9.26s-304.92-.12-304.92-.26,136.49-.26,304.92-.26S679.91,467.43,679.91,467.57Z" style="fill:#263238"></path></g><g id="freepik--Character--inject-41"><path d="M207.14,302.1s13.31,3.29,15.54,30.73c1.31,16.05,2.86,32.41,2.86,32.41l29.27,6.91,5.15,16-38.34,7.54c-10.61,0-22.27-9.16-22-19.77L199.17,339Z" style="fill:#00B6E8"></path><path d="M136.84,302.33l-5.94,41.22a42.24,42.24,0,0,0,1.25,17.82l7.33,25.12s-9.95,12.75-1.74,17.68c1.62,1,45.62,3,45.62,3l21.33-1.47,2.85-61.05-.4-42.52s-14.81-5.39-20.61-6a220.13,220.13,0,0,0-32.34.27Z" style="fill:#00B6E8"></path><path d="M205,344.24a4.33,4.33,0,0,0-1.57-.06,5.21,5.21,0,0,1-4.84-3.23,7.83,7.83,0,0,1-1.38,2.84,2.7,2.7,0,0,1-2.84.93c-1.07-.41-1.57-1.6-2.35-2.42a4.28,4.28,0,0,0-6.78,1.51c-.4,1.19-.65,2.92-1.91,2.9-1.44,0-1.42-2.34-2.54-3.24s-2.83,0-3.81,1.13-2,2.47-3.48,2.44-2.39-1.33-2.79-2.64-.4-2.72-.88-4-1.68-2.48-3-2.27c-1.68.26-2.3,2.28-2.74,3.91s-1.66,3.57-3.3,3.15c-2.35-.6-1.4-4.76-3.47-6-1.46-.88-3.37.38-4.15,1.9s-1,3.32-1.91,4.75S148,348,147,346.7c-.37-.45-.52-1.07-.92-1.49a2.57,2.57,0,0,0-3-.12c-1,.52-1.76,1.34-2.76,1.77s-3.25,0-3.75-1l-3,5.31c-.49,1.11-1.81,2.49-1,2.95a1.51,1.51,0,0,0,2.12-.86,3.27,3.27,0,0,0,3.74-.32c.72-.68,1.4-1.81,2.35-1.55.49.13.8.6,1.14,1a3.76,3.76,0,0,0,4.87.43,20.88,20.88,0,0,0,2-2.13,2.52,2.52,0,0,1,2.61-.81c1.06.45,1.28,1.86,1.18,3s-.34,2.42.29,3.38c.83,1.26,2.75,1.28,4.07.54a17.25,17.25,0,0,0,3.29-3c1.08-1.05,2.53-2,4-1.66,1.72.35,3,2.27,4.77,2.06,1.21-.15,2.13-1.29,3.35-1.36s2.37,1.19,3.66,1.59c2.91.91,5.55-2.73,8.59-2.45,2.78.26,5,3.74,7.64,2.77,2.31-.85,2.33-4.36,4.36-5.75,1.22-.85,2.85-.7,4.33-.52s3.11.32,4.33-.53S206.45,344.74,205,344.24Z" style="fill:#fff"></path><path d="M207.28,341.82a1.66,1.66,0,0,1,2.54-2,3,3,0,0,1,.88,2.26,5.7,5.7,0,0,0,.4,2.44,1.49,1.49,0,0,0,2.08.69c.52-.41.54-1.16.61-1.82s.4-1.43,1.06-1.46,1.07.71,1.19,1.36.16,1.4.68,1.81c.73-.22.89-1.15,1.05-1.9s.87-1.6,1.53-1.23c.33.18.45.59.62.93s.53.67.88.53c.59-.22.28-1.35.87-1.58.39-.14.75.27,1,.63a4.37,4.37,0,0,1,.82,2.11,1.55,1.55,0,0,1-1.26,1.64,5.45,5.45,0,0,1-1.31-.32,2.48,2.48,0,0,0-2.41,1.22,7.17,7.17,0,0,0-.88,2.69,3,3,0,0,0-4.28.29c-.84,1.1-1.06,2.93-2.42,3.21a2,2,0,0,1-2.07-1.42,5.77,5.77,0,0,1,0-2.71L207,350.72l-.42-2.44" style="fill:#fff"></path><g style="opacity:0.30000000000000004"><path d="M134.54,399.14l23.51-7.26L173,390.51s4.27,7.45,8.07,7.1a16,16,0,0,0,6.39-2s1.44,7.84,5.24,7.26,1.85-24,1.85-24l-39.66-8L131.36,377Z"></path></g><path d="M136.84,302.33S124.6,306.62,120,313.51c-6.07,9.13-23.22,35.37-31.26,55.91-2.52,6.43-.42,16.31,3.3,22.12h0a20.89,20.89,0,0,0,23.34,8.81l42.89-12.1,4-24.11-37.36,1.56,10.47-17.17Z" style="fill:#00B6E8"></path><path d="M103.42,340.43a2.38,2.38,0,0,1,3.73.17c.66,1,.66,2.78,1.87,3,.88.17,1.58-.68,2.17-1.37s1.65-1.31,2.31-.69.29,1.8,1,2.26,1.45-.23,1.89-.86,1-1.4,1.72-1.33c1.56.14,1.23,3.36,2.8,3.39.8,0,1.28-.91,2-1.21,1-.4,2,.34,2.77,1a5.21,5.21,0,0,1,1.33,1.52,1.75,1.75,0,0,1-.15,1.92c-.69.75-1.93.44-2.82-.06s-1.85-1.14-2.84-.89c-1.67.42-2.28,3.17-4,3-1.56-.18-2-2.72-3.54-2.89s-2.81,2.43-4.32,1.81c-.7-.28-1-1.16-1.64-1.55a2.26,2.26,0,0,0-2.08.11,14.51,14.51,0,0,1-1.93,1,1.75,1.75,0,0,1-2-.47c-.41-.6.08-1.65.79-1.49l-1.71-.28,0-1.36" style="fill:#fff"></path><path d="M207,326.21a12.86,12.86,0,0,1,.13,1.92c0,1.24.08,3,.09,5.25,0,4.44-.05,10.56-.36,17.32S206,363.58,205.59,368c-.22,2.2-.42,4-.58,5.22.39,17.3-.26,1.9-.3,1.9a12.74,12.74,0,0,1,.07-1.93c.1-1.33.23-3.1.39-5.23.33-4.42.75-10.52,1.06-17.27s.46-12.87.53-17.3c0-2.14.07-3.91.1-5.25A11.21,11.21,0,0,1,207,326.21Z" style="fill:#263238"></path><path d="M209.37,303.42c.15.11-1.55,2.33-2.73,5.51s-1.41,6-1.6,5.95a13.21,13.21,0,0,1,1.05-6.16A13.07,13.07,0,0,1,209.37,303.42Z" style="fill:#263238"></path><path d="M141.38,324.75c-.09,0-.18-1.11-.59-2.85a23.5,23.5,0,0,0-2.61-6.42,23.83,23.83,0,0,0-4.39-5.36c-1.33-1.19-2.27-1.8-2.22-1.88a2.4,2.4,0,0,1,.71.36,13.55,13.55,0,0,1,1.75,1.25,20.66,20.66,0,0,1,7.12,12,16.22,16.22,0,0,1,.26,2.13A2.41,2.41,0,0,1,141.38,324.75Z" style="fill:#263238"></path><path d="M124.42,365.91a52,52,0,0,0-6.83,2.82,53.26,53.26,0,0,0-6.07,4.21,7.39,7.39,0,0,1,1.49-1.61,23.39,23.39,0,0,1,4.34-3.06,22.52,22.52,0,0,1,4.91-2A6.41,6.41,0,0,1,124.42,365.91Z" style="fill:#263238"></path><path d="M142.21,334.2a7.13,7.13,0,0,1-.54,1.3c-.37.83-.94,2-1.66,3.45-1.44,2.89-3.51,6.85-5.93,11.14s-4.74,8.12-6.47,10.84c-.87,1.37-1.59,2.46-2.1,3.21a7.14,7.14,0,0,1-.83,1.13,7.63,7.63,0,0,1,.66-1.24l2-3.29c1.65-2.77,3.92-6.61,6.34-10.9s4.53-8.21,6.05-11.06c.73-1.35,1.34-2.48,1.81-3.37A7.85,7.85,0,0,1,142.21,334.2Z" style="fill:#263238"></path><path d="M111.52,401.07l.23-.09.69-.21,2.65-.78,9.86-2.78L158.2,388l-.18.21c.37-2.3.77-4.72,1.17-7.18,1-5.95,1.94-11.67,2.81-16.93l.23.29a246.86,246.86,0,0,0-27.65,1l-8,.67-2.13.17-.55,0h-.19l.19,0,.54-.08,2.13-.24c1.85-.21,4.55-.49,8-.82a229.59,229.59,0,0,1,27.7-1.2h.28l-.05.28c-.86,5.26-1.8,11-2.77,16.93-.41,2.46-.81,4.88-1.19,7.18l0,.17-.16,0-33.3,9-9.9,2.64-2.68.68-.69.17A1.07,1.07,0,0,1,111.52,401.07Z" style="fill:#263238"></path><path d="M181.78,443.73s43.57,12.06,45.32,12.68c2.62.92,2.18,10.54-1.9,10.39-1.93-.07-33.47,1.17-37.46.92s-16-5-16-5Z" style="fill:#00B6E8"></path><path d="M199.93,460.36c.22,0,.51-2.28,1.92-4.68s3.22-3.84,3.08-4-2.24,1.06-3.71,3.65S199.75,460.38,199.93,460.36Z" style="fill:#263238"></path><path d="M195.39,458.3c.21,0,.65-2,1.81-4.3s2.53-3.87,2.37-4-1.82,1.28-3,3.69S195.2,458.29,195.39,458.3Z" style="fill:#263238"></path><path d="M191.12,457.16c.22,0,.06-2.19,1-4.61s2.53-3.91,2.38-4.07-2,1.18-3.06,3.81S191,457.22,191.12,457.16Z" style="fill:#263238"></path><path d="M191.9,451.53a7.78,7.78,0,0,0,.47-3.24,15.31,15.31,0,0,0-.45-3.56,16.14,16.14,0,0,0-.64-2,2.67,2.67,0,0,0-.7-1.07,1.16,1.16,0,0,0-1.5.08,2,2,0,0,0-.58,1.23,9,9,0,0,0-.06,1.15,9.62,9.62,0,0,0,.27,2.13,13.26,13.26,0,0,0,1.34,3.34,9,9,0,0,0,2,2.62c.1-.07-.63-1.09-1.5-2.86a14.36,14.36,0,0,1-1.14-3.24,9.2,9.2,0,0,1-.21-2c0-.67,0-1.51.4-1.83a.42.42,0,0,1,.58,0,1.87,1.87,0,0,1,.47.76,16.21,16.21,0,0,1,.66,1.92,17.25,17.25,0,0,1,.58,3.41C192,450.28,191.78,451.51,191.9,451.53Z" style="fill:#263238"></path><path d="M191.84,451.09a6.15,6.15,0,0,0-2.81-.46,12.66,12.66,0,0,0-3.09.38,6.71,6.71,0,0,0-1.78.66,1.82,1.82,0,0,0-1,2,2.14,2.14,0,0,0,1.57,1.55,3.9,3.9,0,0,0,1.95,0,7.49,7.49,0,0,0,2.83-1.39,7.75,7.75,0,0,0,2-2,20.44,20.44,0,0,0-2.32,1.57,7.76,7.76,0,0,1-2.68,1.16,3.5,3.5,0,0,1-1.61,0,1.47,1.47,0,0,1-1.06-1,1.12,1.12,0,0,1,.64-1.21,6.65,6.65,0,0,1,1.59-.62,14.11,14.11,0,0,1,2.93-.51C190.76,451,191.83,451.2,191.84,451.09Z" style="fill:#263238"></path><path d="M206.62,460.83c.22,0,0-1.89.86-3.93s2.27-3.25,2.14-3.42-1.9.86-2.81,3.14S206.45,460.9,206.62,460.83Z" style="fill:#263238"></path><path d="M176.22,462.84a10,10,0,0,0,1.69.79,36.3,36.3,0,0,0,4.85,1.5,69,69,0,0,0,16.63,1.58c6.53-.07,12.41-.37,16.68-.54l5.05-.27a9.11,9.11,0,0,0,1.85-.2,9.71,9.71,0,0,0-1.86-.08l-5.05,0-16.67.33a77.8,77.8,0,0,1-16.52-1.35C178.7,463.77,176.27,462.7,176.22,462.84Z" style="fill:#263238"></path><path d="M174.93,463.83c.06.1,1.25-.6,3.27-1.48a15.16,15.16,0,0,1,8.24-1.37c3.29.5,5.61,2.71,7.13,4.24a26.25,26.25,0,0,0,2.51,2.57,13.19,13.19,0,0,0-2.13-2.92,17.44,17.44,0,0,0-2.89-2.7,10.37,10.37,0,0,0-4.5-1.91,14.45,14.45,0,0,0-8.58,1.62A11.91,11.91,0,0,0,174.93,463.83Z" style="fill:#263238"></path><g style="opacity:0.30000000000000004"><path d="M181.78,443.73s43.57,12.06,45.32,12.68c2.62.92,2.18,10.54-1.9,10.39-1.93-.07-33.47,1.17-37.46.92s-16-5-16-5Z"></path></g><path d="M137.74,404.17l-8.83,18.15S81.68,408,69.78,408.62s-21.64,5.43-24,15.09-2.63,23,11.25,32.26S140,470.33,140,470.33h27.3l44.63-58.83-7.19-5.83Z" style="fill:#263238"></path><path d="M152.6,444a5.59,5.59,0,0,1-.9,0c-.59-.05-1.46,0-2.56-.2a52.64,52.64,0,0,1-9.26-1.91,89,89,0,0,1-13-5.1c-4.78-2.25-9.87-5-15.22-7.9a159,159,0,0,0-15.42-7.4,69.09,69.09,0,0,0-13.34-4,46.55,46.55,0,0,0-9.35-.82c-1.11,0-2,.09-2.55.1a4.72,4.72,0,0,1-.9,0,5.71,5.71,0,0,1,.89-.13c.58,0,1.44-.2,2.56-.21a44.11,44.11,0,0,1,9.43.63A66.57,66.57,0,0,1,96.39,421a149.86,149.86,0,0,1,15.5,7.38c5.35,2.87,10.43,5.65,15.17,7.92a92.56,92.56,0,0,0,12.94,5.2,58.28,58.28,0,0,0,9.17,2.08c1.09.19,2,.23,2.54.31A5.1,5.1,0,0,1,152.6,444Z" style="fill:#455a64"></path><path d="M184.87,465.53c8.77-3.44,57-18.79,74.08-38.53,14.22-16.43-8.4-31.14-8.4-31.14s-15.86-.5-21.15,0-81,51.67-81,51.67,13.22,25.78,12.89,26.77Z" style="fill:#263238"></path><path d="M208.62,408.32s-.06.06-.2.16l-.64.43-2.47,1.62-9.17,5.83L165.8,435.44l-16.49,10.28.11-.34,8.64,20.79c1,2.52,1.85,4.54,2.43,6l.63,1.6a2.49,2.49,0,0,1,.18.56,3.46,3.46,0,0,1-.27-.53c-.18-.39-.41-.91-.7-1.56l-2.58-5.91c-2.18-5.12-5.25-12.3-8.84-20.71l-.09-.21.2-.13,16.46-10.32L195.92,416l9.26-5.68,2.54-1.52.67-.38Z" style="fill:#455a64"></path><path d="M142,431.07a7.74,7.74,0,0,1-2.24-.84,30.45,30.45,0,0,1-4.95-3,31.12,31.12,0,0,1-4.33-3.82,7.57,7.57,0,0,1-1.48-1.89c.14-.12,2.55,2.61,6.16,5.23S142.05,430.9,142,431.07Z" style="fill:#455a64"></path><path d="M168.24,409.68a18.07,18.07,0,0,1,.12,3c0,1.86.1,4.43.35,7.25s.65,5.37,1,7.2a18.9,18.9,0,0,1,.43,3,12.32,12.32,0,0,1-.84-2.91,55.37,55.37,0,0,1-1.14-7.22,57.75,57.75,0,0,1-.18-7.31A13.89,13.89,0,0,1,168.24,409.68Z" style="fill:#455a64"></path><path d="M173.89,409.06s.22-.06.59.08a2.63,2.63,0,0,1,1.25,1.05,2.86,2.86,0,0,1,.36,2.43,2.64,2.64,0,0,1-2.45,1.73,2.56,2.56,0,0,1-2.58-1.51,2.71,2.71,0,0,1,.33-2.44,2.37,2.37,0,0,1,1.32-1c.39-.09.61,0,.61,0a2.8,2.8,0,0,0-1.57,1.21,2.3,2.3,0,0,0-.19,2,2.07,2.07,0,0,0,2.06,1.13,2.12,2.12,0,0,0,2-1.32,2.55,2.55,0,0,0-.21-2A3.58,3.58,0,0,0,173.89,409.06Z" style="fill:#455a64"></path><path d="M150.55,407.15a2.48,2.48,0,0,1,.41.89,8.34,8.34,0,0,1,.4,2.67,9.63,9.63,0,0,1-.88,3.92,8.81,8.81,0,0,1-7.84,5.28,9.47,9.47,0,0,1-4-.67,8,8,0,0,1-2.32-1.37,2.86,2.86,0,0,1-.68-.72,14.92,14.92,0,0,0,3.14,1.7,9.81,9.81,0,0,0,3.79.51,8.51,8.51,0,0,0,7.38-5,9.83,9.83,0,0,0,.95-3.7A14.23,14.23,0,0,0,150.55,407.15Z" style="fill:#455a64"></path><path d="M195.56,416.13a3,3,0,0,1-1.79-.25,6.79,6.79,0,0,1-4.53-6.93,3.21,3.21,0,0,1,.49-1.74,16.88,16.88,0,0,1-.07,1.75,7.13,7.13,0,0,0,4.26,6.53C194.9,415.94,195.57,416,195.56,416.13Z" style="fill:#455a64"></path><path d="M255.07,373.34s10.4-7.73,12.21-8.06,15.63,1.41,16.46,2.24,13.66,10.5,11.18,11.33-11.35-6.05-11.35-6.05l-1.66,0s7.78,5.73,9,7.69c1.15,1.79-.45,3.51-1.92,2.55s-8.1-6.19-8.69-6.12,7,6.13,7.61,7.14c.85,1.35-.15,3.59-1.64,2.69-.88-.54-7.78-6.71-7.78-6.71s5.06,5.7,5.36,6.55c.48,1.4-1,2.38-2.2,1.37-.83-.69-4.19-5.12-5.31-6.05,0,0-1.34-.29-3.64,1.54s-13.09,3.89-13.09,3.89Z" style="fill:#ffbe9d"></path><path d="M258.21,375.14a3.17,3.17,0,0,0,3.27,1.69c1.32-.09,2.57-.61,3.87-.79,3.9-.54,7.78,2.07,11.65,1.34.54-.1,1.18-.39,1.19-.94s-.51-.84-1-1.06l-11.73-5.71" style="fill:#ffbe9d"></path><path d="M265.49,369.67a5.26,5.26,0,0,1,1.33.48c.84.36,2,.9,3.51,1.58l5.17,2.43,1.49.71c.45.26,1.16.4,1.52,1.23a1.13,1.13,0,0,1-.37,1.18,2.37,2.37,0,0,1-1,.45,8.83,8.83,0,0,1-1.92.14c-2.59-.11-4.82-1-6.89-1.38a9.9,9.9,0,0,0-2.94-.15c-.91.11-1.76.38-2.57.54a4.58,4.58,0,0,1-3.85-.53c-.78-.61-.82-1.22-.79-1.21s.21.5,1,1a4.46,4.46,0,0,0,3.57.26c.78-.19,1.62-.49,2.61-.64a10,10,0,0,1,3.13.08c2.17.33,4.41,1.22,6.8,1.32A7.63,7.63,0,0,0,277,377c.53-.1.92-.42.8-.68s-.63-.57-1.13-.81l-1.48-.74-5.1-2.57c-1.44-.74-2.61-1.35-3.41-1.79A5.53,5.53,0,0,1,265.49,369.67Z" style="fill:#eb996e"></path><path d="M294.87,378.87a7.22,7.22,0,0,1-2.93-.61,18,18,0,0,1-3-1.38c-1-.68-2.1-1.45-3.25-2.26l-2.42-1.74.16.07c-4.11-.56-7.07-1.07-7.05-1.24s3,.07,7.14.53h.09l.08.06,2.42,1.7,3.19,2.28a19.83,19.83,0,0,0,2.8,1.48C293.8,378.48,294.9,378.76,294.87,378.87Z" style="fill:#eb996e"></path><path d="M151.06,451s-43.57,12.06-45.32,12.67c-2.63.93-2.18,10.54,1.9,10.39,1.93-.07,33.47,1.18,37.45.93s14.71-4.49,14.71-4.49Z" style="fill:#00B6E8"></path><path d="M132.91,467.62c-.22,0-.51-2.27-1.92-4.68s-3.22-3.83-3.08-4,2.24,1.06,3.71,3.65S133.09,467.64,132.91,467.62Z" style="fill:#263238"></path><path d="M137.45,465.56c-.21,0-.65-2-1.81-4.3s-2.53-3.87-2.38-4,1.83,1.29,3,3.69S137.64,465.55,137.45,465.56Z" style="fill:#263238"></path><path d="M141.71,464.42c-.22,0-.05-2.19-1-4.6s-2.52-3.92-2.37-4.08,2,1.18,3.05,3.81S141.89,464.48,141.71,464.42Z" style="fill:#263238"></path><path d="M140.94,458.79a7.73,7.73,0,0,1-.47-3.24,15.66,15.66,0,0,1,.44-3.55,15.85,15.85,0,0,1,.65-2,2.39,2.39,0,0,1,.7-1.06,1.16,1.16,0,0,1,1.5.07,2,2,0,0,1,.58,1.23,9.08,9.08,0,0,1,0,1.15,9.8,9.8,0,0,1-.26,2.14,13.32,13.32,0,0,1-1.35,3.33,8.68,8.68,0,0,1-1.95,2.62c-.1-.07.63-1.08,1.5-2.86a14.36,14.36,0,0,0,1.14-3.24,9.87,9.87,0,0,0,.21-2c0-.67,0-1.51-.4-1.83a.44.44,0,0,0-.58,0,2,2,0,0,0-.48.76,15.74,15.74,0,0,0-.66,1.93,17.71,17.71,0,0,0-.57,3.4C140.86,457.54,141.06,458.77,140.94,458.79Z" style="fill:#263238"></path><path d="M141,458.35a6.12,6.12,0,0,1,2.81-.45,12.62,12.62,0,0,1,3.1.37,7.08,7.08,0,0,1,1.78.66,1.84,1.84,0,0,1,1,2,2.19,2.19,0,0,1-1.57,1.56,4,4,0,0,1-2,0,7.34,7.34,0,0,1-2.83-1.39,7.83,7.83,0,0,1-2-2,17.53,17.53,0,0,1,2.32,1.57,7.78,7.78,0,0,0,2.67,1.15,3.29,3.29,0,0,0,1.62,0,1.47,1.47,0,0,0,1.06-1,1.12,1.12,0,0,0-.65-1.22,6.42,6.42,0,0,0-1.58-.62,14.81,14.81,0,0,0-2.93-.51C142.08,458.29,141,458.47,141,458.35Z" style="fill:#263238"></path><path d="M126.21,468.09c-.21,0,0-1.89-.86-3.93s-2.27-3.24-2.13-3.41,1.9.85,2.81,3.13S126.39,468.17,126.21,468.09Z" style="fill:#263238"></path><path d="M156.62,470.1a8.35,8.35,0,0,1-1.69.79,36.55,36.55,0,0,1-4.85,1.51A69.12,69.12,0,0,1,133.45,474c-6.53-.07-12.42-.37-16.68-.54l-5-.27a8.78,8.78,0,0,1-1.85-.19,9.09,9.09,0,0,1,1.86-.09l5,0,16.67.32A77.8,77.8,0,0,0,150,471.89C154.13,471,156.57,470,156.62,470.1Z" style="fill:#263238"></path><path d="M157.91,471.09a34.76,34.76,0,0,1-3.27-1.48,15.25,15.25,0,0,0-8.24-1.37c-3.29.51-5.61,2.71-7.13,4.24a26.25,26.25,0,0,1-2.51,2.57,13.46,13.46,0,0,1,2.13-2.92,17.87,17.87,0,0,1,2.89-2.7,10.37,10.37,0,0,1,4.5-1.91,14.46,14.46,0,0,1,8.58,1.63A11.75,11.75,0,0,1,157.91,471.09Z" style="fill:#263238"></path><path d="M114.19,473c-.07-.06.3-.63.64-1.65a8,8,0,0,0-1.44-7.81c-.68-.82-1.24-1.23-1.18-1.31a3.42,3.42,0,0,1,1.49,1,7.54,7.54,0,0,1,2,3.89,7.46,7.46,0,0,1-.51,4.35C114.75,472.52,114.25,473,114.19,473Z" style="fill:#263238"></path><path d="M196.17,376.39c-3.66-1.12-2-5.17-8.74-7.41-5-1.67-10.4-4.79-25.19-3.11l-3.36,20.4,14.21-3.78,4.1,9.16a3.67,3.67,0,0,0,4.94,1.81l7.21-3.45s2,9.91,2.64,10.3a2.12,2.12,0,0,0,3.25-2c-.28-1.33-1-18.54-1-18.54s5.46,1.55,5.12-.63C199.31,379.18,199.83,377.51,196.17,376.39Z" style="fill:#ffbe9d"></path><path d="M180.82,394.34a11.51,11.51,0,0,1,.47-1.12,6.48,6.48,0,0,0,.36-2.84,6.38,6.38,0,0,0-.92-2.7c-.39-.63-.73-1-.68-1a2.46,2.46,0,0,1,.91.85,5.77,5.77,0,0,1,1.07,2.83,5.59,5.59,0,0,1-.49,3C181.2,394,180.85,394.37,180.82,394.34Z" style="fill:#eb996e"></path><path d="M185.34,391.88a8.23,8.23,0,0,0-1.24-6.63s.35.22.74.76a6.14,6.14,0,0,1,1,2.35,6.23,6.23,0,0,1-.06,2.55A2.3,2.3,0,0,1,185.34,391.88Z" style="fill:#eb996e"></path><path d="M188.51,384s.27.23.51.72a5.25,5.25,0,0,1,.14,4.16c-.21.51-.42.77-.46.75a12,12,0,0,0,.43-2.83A11.37,11.37,0,0,0,188.51,384Z" style="fill:#eb996e"></path><path d="M235.62,405.82,162.25,404a1.4,1.4,0,0,1-1.37-1.4h0a1.4,1.4,0,0,1,1.39-1.41l40.47-.51,16-49.54a3.93,3.93,0,0,1,3.86-2.73L284,350.11a4,4,0,0,1,3.58,5.34l-19.3,51.19-32.67-.82" style="fill:#455a64"></path><path d="M251.64,376.11c-.72-1.33-3.76-1.77-5.22-.67a4.07,4.07,0,0,0-1.91,2.45,3.49,3.49,0,0,0,2.12,4.08,4.18,4.18,0,0,0,4.32-1.63A4,4,0,0,0,251.64,376.11Z" style="fill:#fff"></path><path d="M192.27,226.19c.78-1.06,2.52-.09,3.08,1.11s.82,2.72,2,3.29c1.56.75,3.95-.6,4.92.84.74,1.1-.35,2.6,0,3.89.56,2.31,4.54,1.75,5.67,3.84.68,1.25,0,2.75-.56,4.06s-.74,3.13.46,3.87,3-.11,4,.85c1.32,1.3-.66,3.51-.25,5.31.3,1.33,1.78,2,3.11,2.27s2.81.5,3.69,1.54c1.94,2.29-.9,5.82-.11,8.72.48,1.75,2.3,3.23,1.87,5-.54,2.25-4.21,2.56-4.73,4.82-.45,1.92,1.74,4.12.53,5.68s-3.79.1-5.46,1c-1.92,1.09-1.56,4.69-3.71,5.22-1,.23-2-.34-2.94-.2-2.37.35-3,4.45-5.4,4.29-1.4-.09-2.5-1.75-3.86-1.41s-1.54,2.24-2.69,3c-1.8,1.15-3.89-1.24-6-1.33-1.33-.06-2.62.8-3.93.56a3.35,3.35,0,0,1-2.39-2.7,11.85,11.85,0,0,1,.09-3.8,37.52,37.52,0,0,0-3.49-20.41" style="fill:#263238"></path><path d="M185.49,301l-.2-10.95s10.88-1.61,13.38-15.73c1.24-7,1.11-18.57.67-28-.49-10.43-11.8-21.38-20.27-20.64l-25.13,9v4.57l.76,62.26a15.39,15.39,0,0,0,15.39,15.21h0A15.4,15.4,0,0,0,185.49,301Z" style="fill:#ffbe9d"></path><path d="M195,256.13a1.81,1.81,0,0,1-1.78,1.8,1.75,1.75,0,0,1-1.85-1.67,1.82,1.82,0,0,1,1.78-1.8A1.74,1.74,0,0,1,195,256.13Z" style="fill:#263238"></path><path d="M196.73,252.28c-.23.23-1.59-.81-3.54-.84s-3.41.92-3.61.68.13-.53.76-1a5,5,0,0,1,2.9-.83,4.77,4.77,0,0,1,2.81,1C196.64,251.74,196.84,252.17,196.73,252.28Z" style="fill:#263238"></path><path d="M177,255.62a1.81,1.81,0,0,1-1.78,1.8,1.73,1.73,0,0,1-1.84-1.67,1.81,1.81,0,0,1,1.78-1.8A1.73,1.73,0,0,1,177,255.62Z" style="fill:#263238"></path><path d="M177.52,252.3c-.23.23-1.59-.81-3.54-.84s-3.41.92-3.61.68.13-.53.76-1a5,5,0,0,1,2.9-.84,4.84,4.84,0,0,1,2.81,1C177.43,251.77,177.63,252.2,177.52,252.3Z" style="fill:#263238"></path><path d="M184.35,266.92a12.44,12.44,0,0,1,3.18-.52c.5,0,1-.13,1.07-.47a2.61,2.61,0,0,0-.31-1.49c-.45-1.21-.91-2.49-1.41-3.82-1.95-5.45-3.35-9.92-3.13-10s2,4.28,3.93,9.72l1.35,3.85a2.92,2.92,0,0,1,.22,2,1.26,1.26,0,0,1-.83.72,3.53,3.53,0,0,1-.85.1A13,13,0,0,1,184.35,266.92Z" style="fill:#263238"></path><path d="M185.29,290.06a36.06,36.06,0,0,1-18.87-5.4s4.74,9.89,18.93,8.82Z" style="fill:#eb996e"></path><path d="M183.44,271.61a3.53,3.53,0,0,0-3.13-1.36,3.2,3.2,0,0,0-2.24,1.15,2,2,0,0,0-.2,2.32,2.38,2.38,0,0,0,2.55.7,7.33,7.33,0,0,0,2.52-1.45,2.06,2.06,0,0,0,.57-.57.63.63,0,0,0,0-.72" style="fill:#00B6E8"></path><path d="M178.58,268.17c.32,0,.28,2.1,2.07,3.64s4,1.34,4.06,1.64c0,.14-.51.4-1.46.41a5.28,5.28,0,0,1-3.4-1.25,4.6,4.6,0,0,1-1.6-3.05C178.19,268.67,178.43,268.15,178.58,268.17Z" style="fill:#263238"></path><path d="M178.16,244.65c-.2.53-2.15.25-4.45.48s-4.16.83-4.45.35c-.14-.23.2-.73,1-1.23a7.79,7.79,0,0,1,6.78-.62C177.83,244,178.25,244.4,178.16,244.65Z" style="fill:#263238"></path><path d="M196.11,246.61c-.35.44-1.69-.05-3.31-.1s-3,.25-3.3-.22c-.13-.23.09-.67.7-1.08a4.78,4.78,0,0,1,5.32.26C196.09,245.94,196.27,246.4,196.11,246.61Z" style="fill:#263238"></path><path d="M191.61,228.37c0,.16-.48.3-1.08.3s-1.09-.14-1.09-.3.48-.3,1.09-.3S191.61,228.21,191.61,228.37Z" style="fill:#263238"></path><path d="M190.69,231.1c3.65-7.24-4.65-13.3-8.6-15.28a13.56,13.56,0,0,0-12.73.14c-1.74,1-3.26,2.53-5.21,3-4.52,1.15-9.39-3.48-13.59-1.46-3.46,1.65-4,6.83-7.51,8.45-1.67.79-3.62.54-5.45.73s-3.91,1.2-4.14,3c-.27,2,1.88,4.18.8,5.93-1.33,2.15-5.28.15-7,2s.28,5.27-1.66,6.61c-1.43,1-3.83-.2-4.88,1.17s1,3.31,1.18,5.15-1.56,3.33-3.08,4.48-3.11,3-2.38,4.72c.85,2,4.17,2.2,4.74,4.32s-2.34,4.58-1,6.42c.88,1.22,2.9.87,4,1.88,1.86,1.67-.4,4.89.52,7.22,1.26,3.22,6.78,1.81,8.9,4.54,1.17,1.52,1,4,2.67,5s3.84-.55,5.8-.32c3.19.37,5.16,5.22,8.23,4.27,1.57-.48,2.73-2.46,4.33-2.07,1.38.34,1.92,2.31,3.32,2.53,1.9.3,2.43-2.47,3.56-4,1.52-2.07,4.83-2.18,6.23-4.32,1.26-1.93.35-4.5-.76-6.52s-2.43-4.23-1.89-6.47c.62-2.55,3.55-4.76,2.52-7.17-1.12-2.63-6.05-2.36-6.39-5.21-.33-2.69,4.18-4.21,3.67-6.87-.34-1.79-2.79-2.49-3.25-4.25-.54-2,1.94-3.79,1.91-5.91,0-1.35-1.05-2.43-1.79-3.57s-1.14-2.83-.11-3.7c1.65-1.4,4.12,1.15,6.18.53,1.45-.43,2-2.14,2.48-3.56,0,0,3.82-5.79,10.65-5S190.69,231.1,190.69,231.1Z" style="fill:#263238"></path><path d="M190.79,228.49a3,3,0,0,1-1.1,4.76c-1.7.6-3.5-.47-5-1.47s-3.37-2-5-1.3c-3,1.3-2.18,6.81-5.27,8-1.27.49-2.67,0-4-.29s-3-.24-3.72.9c-1,1.53.35,4-1,5.22-.55.52-1.42.62-1.92,1.19-.81.91-.17,2.39.72,3.23s2.06,1.49,2.5,2.63c.7,1.82-.83,3.71-2.39,4.89s-3.43,2.35-3.77,4.28c-.54,3.09,3.3,6.08,2,8.94a3.69,3.69,0,0,1-4.58,1.55,7.56,7.56,0,0,1-3.71-3.65C151,261,152,253.22,153.18,246.05c.77-4.7,1.67-9.56,4.42-13.45s7.39-6.57,12.06-8.2a24.64,24.64,0,0,1,11.12-1.59,13.06,13.06,0,0,1,9.47,5.52" style="fill:#263238"></path><path d="M150.13,292.69a.67.67,0,0,1-.25.15,1,1,0,0,1-.84-.09,2,2,0,0,1-.87-1.06,1.77,1.77,0,0,1-.1-.9,2.29,2.29,0,0,1,.42-.93,5.57,5.57,0,0,1,1.82-1.49,7.29,7.29,0,0,0,2.14-1.63,2.2,2.2,0,0,0,.52-1.32,2.24,2.24,0,0,0-.55-1.39,12.64,12.64,0,0,0-1.22-1.2,4.65,4.65,0,0,1-1.18-1.46,2.05,2.05,0,0,1,.17-2,4.88,4.88,0,0,1,1.61-1.32c.59-.34,1.22-.64,1.78-1a2.59,2.59,0,0,0,1.19-1.54,2,2,0,0,0-.66-1.83,20,20,0,0,0-1.73-1.49,5.53,5.53,0,0,1-1.6-1.87,2.92,2.92,0,0,1,.15-2.56,6.6,6.6,0,0,1,1.69-2c.67-.56,1.39-1,2-1.57a4.93,4.93,0,0,0,1.49-1.95,2.73,2.73,0,0,0-.31-2.35,13.78,13.78,0,0,0-1.67-2.07,5.72,5.72,0,0,1-1.5-2.43,2.9,2.9,0,0,1,.11-1.52,3.44,3.44,0,0,1,.87-1.24,15.19,15.19,0,0,1,2.41-1.59,4.65,4.65,0,0,0,2-1.79,2.57,2.57,0,0,0-.22-2.44,15.18,15.18,0,0,0-1.65-2.15,5.83,5.83,0,0,1-1.3-2.5,2.7,2.7,0,0,1,.11-1.46,2.51,2.51,0,0,1,.94-1.12,5.69,5.69,0,0,1,2.64-.63,10.87,10.87,0,0,0,2.48-.3,2.22,2.22,0,0,0,1.59-1.49c.23-.74.21-1.57.42-2.39a3,3,0,0,1,1.54-2c1.5-.8,3.15-.57,4.57-.53a7.11,7.11,0,0,0,2.08-.21,5.22,5.22,0,0,0,1.76-.93,27.34,27.34,0,0,0,2.72-2.78,8.31,8.31,0,0,1,2.88-2.17,6.65,6.65,0,0,1,3.18-.46,6.2,6.2,0,0,1,4.4,2.45,6.39,6.39,0,0,1,1.26,3,4.4,4.4,0,0,1,0,1.13s0-.39-.14-1.11a6.51,6.51,0,0,0-1.32-2.86,6,6,0,0,0-4.26-2.28,6.43,6.43,0,0,0-3,.48,8.06,8.06,0,0,0-2.73,2.11,27.83,27.83,0,0,1-2.74,2.84,5.48,5.48,0,0,1-1.89,1,7.5,7.5,0,0,1-2.21.24c-1.46,0-3-.22-4.35.5a2.49,2.49,0,0,0-1.29,1.68c-.19.74-.17,1.57-.43,2.41a2.66,2.66,0,0,1-1.89,1.81,11,11,0,0,1-2.59.34,5.44,5.44,0,0,0-2.41.55,2,2,0,0,0-.73.89,2,2,0,0,0-.09,1.18,5.55,5.55,0,0,0,1.2,2.27,14.93,14.93,0,0,1,1.7,2.22,4.09,4.09,0,0,1,.49,1.4,2.8,2.8,0,0,1-.25,1.51,5.09,5.09,0,0,1-2.15,2A15,15,0,0,0,154,253a2.77,2.77,0,0,0-.74,1,2.45,2.45,0,0,0-.1,1.23,5.45,5.45,0,0,0,1.38,2.2,14.54,14.54,0,0,1,1.73,2.15,3.23,3.23,0,0,1,.35,2.77,5.42,5.42,0,0,1-1.64,2.17c-.67.58-1.41,1-2,1.56a6.25,6.25,0,0,0-1.57,1.81,2.39,2.39,0,0,0-.15,2.14,5.07,5.07,0,0,0,1.46,1.71,21.32,21.32,0,0,1,1.77,1.53,2.5,2.5,0,0,1,.75,2.22,3,3,0,0,1-1.37,1.81c-.61.41-1.24.71-1.82,1a4.34,4.34,0,0,0-1.49,1.18,1.7,1.7,0,0,0-.16,1.64c.5,1.07,1.62,1.69,2.33,2.61a2.5,2.5,0,0,1,.6,1.6,2.55,2.55,0,0,1-.6,1.49,7.38,7.38,0,0,1-2.25,1.66,5.62,5.62,0,0,0-1.78,1.4,1.67,1.67,0,0,0-.33,1.66,1.86,1.86,0,0,0,.77,1,1,1,0,0,0,.77.13C150,292.74,150.12,292.68,150.13,292.69Z" style="fill:#455a64"></path><path d="M126.21,280.31s.11,0,.31-.08a1,1,0,0,0,.54-.7,2.29,2.29,0,0,0-.14-1.47,14.49,14.49,0,0,0-1.24-1.69,2.55,2.55,0,0,1-.5-1.2,1.81,1.81,0,0,1,.43-1.37c.63-.8,1.66-1.24,2.3-2.12a1.81,1.81,0,0,0,.27-1.54,4.33,4.33,0,0,0-.9-1.55c-.39-.49-.84-1-1.23-1.55a3.27,3.27,0,0,1-.69-2.05,2.52,2.52,0,0,1,1.2-1.92,6.2,6.2,0,0,1,2.19-.84c.79-.14,1.57-.2,2.34-.38a3.87,3.87,0,0,0,2-1,2.8,2.8,0,0,0,.6-2.21,14.24,14.24,0,0,0-.64-2.51,7.24,7.24,0,0,1-.46-2.74,2.84,2.84,0,0,1,1.62-2.39c1.8-.92,3.91-.5,5.49-1.56a2.28,2.28,0,0,0,.86-1,2.31,2.31,0,0,0,.07-1.33,15,15,0,0,0-1.2-2.73,4.25,4.25,0,0,1-.43-1.57,2.17,2.17,0,0,1,.59-1.6,5.74,5.74,0,0,1,3-1.19c1-.2,2.1-.53,2.33-1.47s-.39-2-.32-3.14a5.67,5.67,0,0,1,3.78-5.1c2.19-.71,4.32.3,6.22-.17a2.78,2.78,0,0,0,2.13-1.62,11.3,11.3,0,0,0,.21-2.9,3.22,3.22,0,0,1,.45-1.51,2.57,2.57,0,0,1,1.24-1,4.91,4.91,0,0,1,3,0c.93.24,1.79.6,2.66.76a4,4,0,0,0,2.52-.25c1.56-.72,2.68-2.11,4-3.16a10.84,10.84,0,0,1,9-2,10.68,10.68,0,0,1,6.48,4,12.38,12.38,0,0,1,2.36,5.3,12.15,12.15,0,0,1,.13,3.67,6.64,6.64,0,0,1-.25,1.26s.08-.44.14-1.27a12.82,12.82,0,0,0-.22-3.62,12.29,12.29,0,0,0-2.39-5.16,10.76,10.76,0,0,0-14.93-1.84c-1.28,1-2.39,2.44-4.1,3.24a4.49,4.49,0,0,1-2.78.31c-.94-.18-1.81-.54-2.7-.77a4.39,4.39,0,0,0-2.66,0,2,2,0,0,0-1,.78,2.72,2.72,0,0,0-.36,1.28,11.05,11.05,0,0,1-.24,3,3.25,3.25,0,0,1-2.48,1.94c-2.14.5-4.25-.5-6.18.17a5.16,5.16,0,0,0-3.42,4.63,5.52,5.52,0,0,0,.2,1.54,3.49,3.49,0,0,1,.1,1.71,2.14,2.14,0,0,1-1.14,1.35,6.88,6.88,0,0,1-1.58.5,5.34,5.34,0,0,0-2.76,1,1.69,1.69,0,0,0-.45,1.23,3.73,3.73,0,0,0,.39,1.38,16.45,16.45,0,0,1,1.23,2.83,2.84,2.84,0,0,1-.11,1.63,2.71,2.71,0,0,1-1,1.22,6.74,6.74,0,0,1-2.86.9,8.5,8.5,0,0,0-2.68.66,2.41,2.41,0,0,0-1.37,2,6.81,6.81,0,0,0,.43,2.57,15.11,15.11,0,0,1,.65,2.59,3.27,3.27,0,0,1-.73,2.55,4.23,4.23,0,0,1-2.28,1.16c-.8.18-1.61.24-2.35.37a5.61,5.61,0,0,0-2.05.76,2.16,2.16,0,0,0-1.06,1.63,3,3,0,0,0,.61,1.82c.38.55.82,1,1.21,1.55a4.62,4.62,0,0,1,.94,1.67,2.15,2.15,0,0,1-.33,1.79c-.73.95-1.77,1.37-2.35,2.1a1.64,1.64,0,0,0-.4,1.2,2.38,2.38,0,0,0,.45,1.11,13.17,13.17,0,0,1,1.21,1.74,2.39,2.39,0,0,1,.1,1.56,1,1,0,0,1-.63.72A.53.53,0,0,1,126.21,280.31Z" style="fill:#455a64"></path><path d="M209.41,281a1.27,1.27,0,0,0,.6.24,1.75,1.75,0,0,0,1.49-1c.42-.71.18-1.77.06-3a4.79,4.79,0,0,1,.26-1.95,18.5,18.5,0,0,0,.65-2,2,2,0,0,0-.58-2,6.08,6.08,0,0,0-2.24-1,5.43,5.43,0,0,1-2.56-1.25,1.87,1.87,0,0,1-.41-1.53,2.88,2.88,0,0,1,.77-1.4c.67-.76,1.57-1.37,1.9-2.26a1.93,1.93,0,0,0-1.22-2.29c-.89-.51-2-.6-3.11-1.09a3.3,3.3,0,0,1-1.42-1.13,3,3,0,0,1-.51-1.77,7.77,7.77,0,0,1,1-3.37,9.86,9.86,0,0,0,1.11-3,3.23,3.23,0,0,0-1-2.71c-.69-.73-1.56-1.3-2.3-2a5.11,5.11,0,0,1-1.57-2.56,10.46,10.46,0,0,1-.25-2.8,14,14,0,0,0-.35-4.85,7.67,7.67,0,0,0-2.19-3.28,8.13,8.13,0,0,0-2.57-1.58,9.62,9.62,0,0,0-2.55-.52,3.38,3.38,0,0,1,.69,0,7.12,7.12,0,0,1,1.92.37,8.23,8.23,0,0,1,5.05,4.94,14.07,14.07,0,0,1,.43,5,10.16,10.16,0,0,0,.26,2.68,4.67,4.67,0,0,0,1.46,2.33c.71.67,1.58,1.23,2.33,2a3.72,3.72,0,0,1,1.11,3.11c-.29,2.32-2.09,4.09-2.07,6.33a2.62,2.62,0,0,0,.42,1.49,2.76,2.76,0,0,0,1.2.95c1,.45,2.13.54,3.15,1.12a3.21,3.21,0,0,1,1.27,1.16,2,2,0,0,1,.17,1.74,8.54,8.54,0,0,1-2,2.41,2.53,2.53,0,0,0-.66,1.16,1.42,1.42,0,0,0,.3,1.16,5.24,5.24,0,0,0,2.33,1.13,6.22,6.22,0,0,1,2.39,1.14,2.33,2.33,0,0,1,.67,1.11,2.73,2.73,0,0,1,0,1.24,17.11,17.11,0,0,1-.69,2.06,4.29,4.29,0,0,0-.28,1.83c.07,1.16.31,2.29-.19,3.1a1.82,1.82,0,0,1-1.67,1A.76.76,0,0,1,209.41,281Z" style="fill:#455a64"></path><g style="opacity:0.30000000000000004"><polygon points="140.25 338.09 140.25 364.78 133.34 365.32 130.81 355.75 140.25 338.09"></polygon></g></g></svg>